/* XPM */
static char * refract_xpm[] = {
"32 32 256 2",
"  	c #AF0000",
". 	c #AFFF03",
"+ 	c #AFFD02",
"@ 	c #B9FF03",
"# 	c #B8FF03",
"$ 	c #C2FF03",
"% 	c #C5FF03",
"& 	c #C8FF03",
"* 	c #BFFF03",
"= 	c #BDFF03",
"- 	c #C1FF03",
"; 	c #C7FF03",
"> 	c #BCFF03",
", 	c #BBFF03",
"' 	c #AFFA01",
") 	c #AFFC02",
"! 	c #AFE902",
"~ 	c #AFE502",
"{ 	c #AF9D01",
"] 	c #AF5A01",
"^ 	c #AF8F01",
"/ 	c #AFAF00",
"( 	c #AFB900",
"_ 	c #AFF701",
": 	c #AFC201",
"< 	c #AFCA01",
"[ 	c #B5FF03",
"} 	c #B1FF03",
"| 	c #B0FF03",
"1 	c #B3FF03",
"2 	c #AFF500",
"3 	c #AF6A00",
"4 	c #AF2400",
"5 	c #B7FF03",
"6 	c #B2FF03",
"7 	c #AFF801",
"8 	c #AFB500",
"9 	c #AFF600",
"0 	c #AFFB02",
"a 	c #C3FF03",
"b 	c #BAFF03",
"c 	c #AF0D00",
"d 	c #B4FF03",
"e 	c #AF4001",
"f 	c #AF1000",
"g 	c #AFC301",
"h 	c #AFDA02",
"i 	c #C0FF03",
"j 	c #DE0D00",
"k 	c #BEFF03",
"l 	c #AFF700",
"m 	c #B6FF03",
"n 	c #AFBD01",
"o 	c #AFFE03",
"p 	c #AFFA02",
"q 	c #AFFD03",
"r 	c #AF1C00",
"s 	c #AF1300",
"t 	c #000000",
"u 	c #000000",
"v 	c #000000",
"w 	c #000000",
"x 	c #000000",
"y 	c #000000",
"z 	c #000000",
"A 	c #000000",
"B 	c #000000",
"C 	c #000000",
"D 	c #000000",
"E 	c #000000",
"F 	c #000000",
"G 	c #000000",
"H 	c #000000",
"I 	c #000000",
"J 	c #000000",
"K 	c #000000",
"L 	c #000000",
"M 	c #000000",
"N 	c #000000",
"O 	c #000000",
"P 	c #000000",
"Q 	c #000000",
"R 	c #000000",
"S 	c #000000",
"T 	c #000000",
"U 	c #000000",
"V 	c #000000",
"W 	c #000000",
"X 	c #000000",
"Y 	c #000000",
"Z 	c #000000",
"` 	c #000000",
" .	c #000000",
"..	c #000000",
"+.	c #000000",
"@.	c #000000",
"#.	c #000000",
"$.	c #000000",
"%.	c #000000",
"&.	c #000000",
"*.	c #000000",
"=.	c #000000",
"-.	c #000000",
";.	c #000000",
">.	c #000000",
",.	c #000000",
"'.	c #000000",
").	c #000000",
"!.	c #000000",
"~.	c #000000",
"{.	c #000000",
"].	c #000000",
"^.	c #000000",
"/.	c #000000",
"(.	c #000000",
"_.	c #000000",
":.	c #000000",
"<.	c #000000",
"[.	c #000000",
"}.	c #000000",
"|.	c #000000",
"1.	c #000000",
"2.	c #000000",
"3.	c #000000",
"4.	c #000000",
"5.	c #000000",
"6.	c #000000",
"7.	c #000000",
"8.	c #000000",
"9.	c #000000",
"0.	c #000000",
"a.	c #000000",
"b.	c #000000",
"c.	c #000000",
"d.	c #000000",
"e.	c #000000",
"f.	c #000000",
"g.	c #000000",
"h.	c #000000",
"i.	c #000000",
"j.	c #000000",
"k.	c #000000",
"l.	c #000000",
"m.	c #000000",
"n.	c #000000",
"o.	c #000000",
"p.	c #000000",
"q.	c #000000",
"r.	c #000000",
"s.	c #000000",
"t.	c #000000",
"u.	c #000000",
"v.	c #000000",
"w.	c #000000",
"x.	c #000000",
"y.	c #000000",
"z.	c #000000",
"A.	c #000000",
"B.	c #000000",
"C.	c #000000",
"D.	c #000000",
"E.	c #000000",
"F.	c #000000",
"G.	c #000000",
"H.	c #000000",
"I.	c #000000",
"J.	c #000000",
"K.	c #000000",
"L.	c #000000",
"M.	c #000000",
"N.	c #000000",
"O.	c #000000",
"P.	c #000000",
"Q.	c #000000",
"R.	c #000000",
"S.	c #000000",
"T.	c #000000",
"U.	c #000000",
"V.	c #000000",
"W.	c #000000",
"X.	c #000000",
"Y.	c #000000",
"Z.	c #000000",
"`.	c #000000",
" +	c #000000",
".+	c #000000",
"++	c #000000",
"@+	c #000000",
"#+	c #000000",
"$+	c #000000",
"%+	c #000000",
"&+	c #000000",
"*+	c #000000",
"=+	c #000000",
"-+	c #000000",
";+	c #000000",
">+	c #000000",
",+	c #000000",
"'+	c #000000",
")+	c #000000",
"!+	c #000000",
"~+	c #000000",
"{+	c #000000",
"]+	c #000000",
"^+	c #000000",
"/+	c #000000",
"(+	c #000000",
"_+	c #000000",
":+	c #000000",
"<+	c #000000",
"[+	c #000000",
"}+	c #000000",
"|+	c #000000",
"1+	c #000000",
"2+	c #000000",
"3+	c #000000",
"4+	c #000000",
"5+	c #000000",
"6+	c #000000",
"7+	c #000000",
"8+	c #000000",
"9+	c #000000",
"0+	c #000000",
"a+	c #000000",
"b+	c #000000",
"c+	c #000000",
"d+	c #000000",
"e+	c #000000",
"f+	c #000000",
"g+	c #000000",
"h+	c #000000",
"i+	c #000000",
"j+	c #000000",
"k+	c #000000",
"l+	c #000000",
"m+	c #000000",
"n+	c #000000",
"o+	c #000000",
"p+	c #000000",
"q+	c #000000",
"r+	c #000000",
"s+	c #000000",
"t+	c #000000",
"u+	c #000000",
"v+	c #000000",
"w+	c #000000",
"x+	c #000000",
"y+	c #000000",
"z+	c #000000",
"A+	c #000000",
"B+	c #000000",
"C+	c #000000",
"D+	c #000000",
"E+	c #000000",
"F+	c #000000",
"G+	c #000000",
"                                                                ",
"  . + . + . . . @ . . # . $ % % & * = = $ $ - ; = > , , - . '   ",
"  + . ) ) ) ! ~ { ] ^ / / ( _ _ _ : < _ ' ' . @ [ [ } | 1 * ,   ",
"  + ) 2 / 3 4             4 4 4 3 4 3 / 3 3 2 . . . . . 5 6 #   ",
"  + 7 / 3 4 4 4                       4 3 3 4 8 . . . . . . #   ",
"  + 9 / 3 3 3 4                           4 4 3 8 0 . . . . #   ",
"  + / / 3 3 / / / 4 4 3 4 3 / / / 4 4       4 4 3 / . . . . @   ",
"  _ / / / / / / 2 / / 2 2 2 2 / 2 2 / / / / 3   4 3 2 . . . a   ",
"  / / / / / / / / / / 2 2 / / / / / 2 2 2 2 / 3 4 3 / 9 [ | b   ",
"  2 / 2 2 / / / / / / / / / / 2 / 2 2 2 2 2 2 2 / 3 3 2 . } #   ",
"  / 2 / / / 2 / / / / / 4 4 4 4 3 3 / 2 2 2 . . 2 / / . . . #   ",
"  / 2 2 / / / / / / /             4 4 / 2 2 2 . . 2 / 2 . . #   ",
"  2 2 2 / / 3 / 3 / c             4 4 4 3 2 . . . . . 2 . 6 #   ",
"  2 2 / / 3 3 3 3 3                   4 3 3 2 2 . . . . . 5 b   ",
"  2 / / 3 3 3 3 3           3 3 4 c     3 / 3 2 . . [ . . . >   ",
"  2 / / 3 4 3 3 4       4 / / 2 . 2 3     4 / / . . . d } 6 $   ",
"  2 / / 3 4 4 4     4 4 / . . . / / . 2 e   / / 2 . . . . . @   ",
"  2 / / 3 4     4 3 3 3 . . .       4 . . f   3 / . . . . . ,   ",
"  2 / / 3 c 4 3 3 4 4 / . . 4   3 4   g . h     / . . . | . @   ",
"  2 / / 3 3 3 /     3 / . 2     4 4 4 4 @ . 4 c 3 2 . . . . i   ",
"  2 / / / / /       3 / . /         4 j . k / 4 4 2 . . . . .   ",
"  2 / / / 2 2     4   / . 3           4 . . / / 3 / . 7 . . 5   ",
"  2 / / / 2 2 3 4 4   3 . /   c         2 / / . / / l . . . m   ",
"  2 2 / 3 / / 3 3 3 4 4 / 2             2 2 . . / n o . . . m   ",
"  2 2 / / 4 4 3 3 4 3 3 3 2 3       4 2 . . . . 9 o . . . . m   ",
"  2 2 / 2 4   4 3 3 4 3 / / / 3 3 / 2 . . . . . . . . . . . d   ",
"  2 2 2 2 3     3 3 3 4 3 3 / 2 2 / 2 . . . b . . . . . . . ,   ",
"  2 2 2 2 / 4   4 3 3 3 3 / / / / 2 2 2 . . . . . . . . . . m   ",
"  2 2 2 2 . /     4 3 / / / / / 2 2 2 2 . 9 . . . . . . . . @   ",
"  2 2 2 . 2 2 / 4 4 4 3 / / / 2 9 p + . . . . . . . . . . . a   ",
"  2 2 2 2 2 2 2 2 / / / / / 2 2 ) q q . . . > . . , 1 m - i ;   ",
"                                              r s               "};
