<?xml version="1.0" encoding="UTF-8" standalone="no"?>
<!-- Created with Inkscape (http://www.inkscape.org/) -->

<svg
   width="60"
   height="60"
   viewBox="0 0 60 60"
   version="1.1"
   id="svg5"
   inkscape:version="1.2.2 (b0a8486541, 2022-12-01)"
   sodipodi:docname="checkers1.svg"
   xmlns:inkscape="http://www.inkscape.org/namespaces/inkscape"
   xmlns:sodipodi="http://sodipodi.sourceforge.net/DTD/sodipodi-0.dtd"
   xmlns="http://www.w3.org/2000/svg"
   xmlns:svg="http://www.w3.org/2000/svg">
  <sodipodi:namedview
     id="namedview7"
     pagecolor="#ffffff"
     bordercolor="#666666"
     borderopacity="1.0"
     inkscape:showpageshadow="2"
     inkscape:pageopacity="0.0"
     inkscape:pagecheckerboard="0"
     inkscape:deskcolor="#d1d1d1"
     inkscape:document-units="px"
     showgrid="false"
     inkscape:zoom="2"
     inkscape:cx="-46.75"
     inkscape:cy="110.5"
     inkscape:window-width="1920"
     inkscape:window-height="1137"
     inkscape:window-x="0"
     inkscape:window-y="0"
     inkscape:window-maximized="1"
     inkscape:current-layer="svg5" />
  <defs
     id="defs2" />
  <g
     inkscape:label="Dark"
     inkscape:groupmode="layer"
     id="layer1"
     style="display:none;opacity:0.2">
    <rect
       style="fill:#333333;fill-rule:evenodd;stroke-width:0.529167;paint-order:stroke fill markers"
       id="rect371-6"
       width="30"
       height="30"
       x="30"
       y="30"
       inkscape:label="R11" />
    <rect
       style="fill:#333333;fill-rule:evenodd;stroke-width:0.529167;paint-order:stroke fill markers"
       id="rect371"
       width="30"
       height="30"
       x="0"
       y="0"
       inkscape:label="R00" />
  </g>
  <g
     inkscape:groupmode="layer"
     id="layer2"
     inkscape:label="Light"
     style="display:none;opacity:0.2">
    <rect
       style="fill:#ffffff;fill-rule:evenodd;stroke-width:0.529167;paint-order:stroke fill markers"
       id="rect371-7-5"
       width="30"
       height="30"
       x="0"
       y="30"
       inkscape:label="R10" />
    <rect
       style="fill:#ffffff;fill-rule:evenodd;stroke-width:0.529167;paint-order:stroke fill markers"
       id="rect371-7"
       width="30"
       height="30"
       x="30"
       y="0"
       inkscape:label="R01" />
  </g>
  <g
     aria-label="B"
     id="text240"
     style="font-weight:bold;font-size:15px;font-family:'Fira Mono';-inkscape-font-specification:'Fira Mono Bold';fill:#333333;fill-rule:evenodd;stroke-width:2;paint-order:stroke fill markers;opacity:0.2"
     inkscape:label="B">
    <path
       d="m 48.862501,17.1525 c 0,-1.665 -1.245,-2.28 -2.355,-2.46 1.02,-0.255 1.905,-0.99 1.905,-2.235 0,-2.025 -1.845,-2.6549998 -3.975,-2.6549998 h -3.3 V 20.1975 h 3.45 c 2.25,0 4.275,-0.645 4.275,-3.045 z m -2.925,-4.44 c 0,0.87 -0.45,1.245 -1.5,1.245 h -0.84 v -2.415 h 0.75 c 1.095,0 1.59,0.345 1.59,1.17 z m 0.39,4.335 c 0,1.14 -0.855,1.35 -1.83,1.35 h -0.9 v -2.79 h 1.005 c 1.05,0 1.725,0.36 1.725,1.44 z"
       id="path1163"
       style="fill:#ffffff"
       inkscape:label="Light" />
    <path
       d="m 18.8625,17.1525 c 0,-1.665 -1.245,-2.28 -2.355,-2.46 1.02,-0.255 1.905,-0.99 1.905,-2.235 0,-2.025 -1.845,-2.655 -3.975,-2.655 h -3.3 v 10.395 h 3.45 c 2.25,0 4.275,-0.645 4.275,-3.045 z m -2.925,-4.44 c 0,0.87 -0.45,1.245 -1.5,1.245 h -0.84 v -2.415 h 0.75 c 1.095,0 1.59,0.345 1.59,1.17 z m 0.39,4.335 c 0,1.14 -0.855,1.35 -1.83,1.35 h -0.9 v -2.79 h 1.005 c 1.05,0 1.725,0.36 1.725,1.44 z"
       id="path1163-7"
       style="-inkscape-font-specification:'Fira Mono Bold'"
       inkscape:label="Dark" />
  </g>
</svg>
