<?xml version="1.0" encoding="UTF-8" standalone="no"?>
<svg
   xmlns:dc="http://purl.org/dc/elements/1.1/"
   xmlns:cc="http://creativecommons.org/ns#"
   xmlns:rdf="http://www.w3.org/1999/02/22-rdf-syntax-ns#"
   xmlns:svg="http://www.w3.org/2000/svg"
   xmlns="http://www.w3.org/2000/svg"
   xmlns:sodipodi="http://sodipodi.sourceforge.net/DTD/sodipodi-0.dtd"
   xmlns:inkscape="http://www.inkscape.org/namespaces/inkscape"
   version="1.1"
   width="800"
   height="350"
   viewBox="0 0 800 350"
   overflow="visible"
   enable-background="new 0 0 800 350"
   xml:space="preserve"
   id="svg322"
   sodipodi:docname="comic.svg"
   inkscape:version="1.0.2 (e86c870879, 2021-01-15)"
   inkscape:export-xdpi="96"
   inkscape:export-ydpi="96"><defs
   id="defs231" /><sodipodi:namedview
   pagecolor="#ffffff"
   bordercolor="#666666"
   borderopacity="1"
   objecttolerance="10"
   gridtolerance="10"
   guidetolerance="10"
   inkscape:pageopacity="0"
   inkscape:pageshadow="2"
   inkscape:window-width="1920"
   inkscape:window-height="1022"
   id="namedview229"
   showgrid="false"
   units="px"
   inkscape:zoom="1.5"
   inkscape:cx="400.77083"
   inkscape:cy="136.70833"
   inkscape:window-x="0"
   inkscape:window-y="0"
   inkscape:window-maximized="1"
   inkscape:current-layer="Captions"
   inkscape:document-rotation="0" />
	<title
   id="title2">Damn Pixels</title>
<pattern
   y="350"
   width="3"
   height="3"
   patternUnits="userSpaceOnUse"
   id="New_Pattern_Swatch_1"
   viewBox="0 -3 3 3">
	<g
   id="g12">
		<polygon
   fill="none"
   points="0,0 3,0 3,-3 0,-3"
   id="polygon6" />
		<polygon
   fill="#FFFFFF"
   points="3,0 0,0 0,-3 3,-3"
   id="polygon8" />
		<path
   d="M3-1.5C3-0.672,2.328,0,1.5,0S0-0.672,0-1.5S0.672-3,1.5-3S3-2.328,3-1.5z"
   id="path10" />
	</g>
</pattern>
<pattern
   y="350"
   width="3"
   height="3"
   patternUnits="userSpaceOnUse"
   id="New_Pattern_Swatch_3"
   viewBox="0 -3 3 3">
	<g
   id="g21">
		<polygon
   fill="none"
   points="0,0 3,0 3,-3 0,-3"
   id="polygon15" />
		<polygon
   points="3,0 0,0 0,-3 3,-3"
   id="polygon17" />
		<path
   fill="#FFFFFF"
   d="M3-1.5C3-0.672,2.328,0,1.5,0S0-0.672,0-1.5S0.672-3,1.5-3S3-2.328,3-1.5z"
   id="path19" />
	</g>
</pattern>
<g
   inkscape:groupmode="layer"
   id="layer1"
   inkscape:label="Backplate"
   sodipodi:insensitive="true"><rect
     style="opacity:1;fill:#ffffff;fill-opacity:1;fill-rule:evenodd;stroke:none;stroke-width:17.55808067;stroke-miterlimit:4;stroke-dasharray:none;stroke-opacity:1"
     id="rect973"
     width="800"
     height="350"
     x="0"
     y="-1.1368684e-13" /></g><g
   inkscape:groupmode="layer"
   id="Cell_One"
   inkscape:label="Cell_One"
   style="display:inline"
   sodipodi:insensitive="true">
	<rect
   width="800"
   height="350"
   id="rect24"
   x="0"
   y="0" />
	<polygon
   points="799,349 799,294.75 761,295 761.25,349 "
   id="polygon26"
   style="fill:url(#New_Pattern_Swatch_3)" />
	<path
   d="m 702.25,293.75 -0.5,55.25 h 53.75 l 0.25,-54.25 c 0,0 -41.75,-2.25 -53.5,-1 z"
   id="path28"
   inkscape:connector-curvature="0"
   style="fill:url(#New_Pattern_Swatch_3)" />
	<polygon
   points="695.75,349 696.25,294.25 638,294.75 638.5,349 "
   id="polygon30"
   style="fill:url(#New_Pattern_Swatch_3)" />
	<polygon
   points="632.5,294.75 575.5,296.25 576,349 632.25,349 "
   id="polygon32"
   style="fill:url(#New_Pattern_Swatch_3)" />
	<polygon
   points="506,349 505,296.25 446.25,295.75 445.5,349 "
   id="polygon34"
   style="fill:url(#New_Pattern_Swatch_3)" />
	<polygon
   points="439.75,349 440.75,296.25 379.25,296.5 379.5,349 "
   id="polygon36"
   style="fill:url(#New_Pattern_Swatch_3)" />
	<polygon
   points="373.75,296.75 313.25,296.75 312.25,349 373.75,349 "
   id="polygon38"
   style="fill:url(#New_Pattern_Swatch_3)" />
	<polygon
   points="570,349 569,296.25 511,296.25 511.5,349 "
   id="polygon40"
   style="fill:url(#New_Pattern_Swatch_3)" />
	<path
   d="m 1,296 v 53 h 2.25 c 0,0 0.5,-28 11,-33.5 0,0 11,-8 19.75,-11 l 7.25,-3 2.75,-1.75 V 296 Z"
   id="path42"
   inkscape:connector-curvature="0"
   style="fill:url(#New_Pattern_Swatch_1)" />
	<polygon
   points="55.75,296 50,297.25 50.25,296 "
   id="polygon44"
   style="fill:url(#New_Pattern_Swatch_1)" />
	<path
   d="M 150.75,296.25 H 174 l 0.75,41 c 0,0 -5.75,-20.75 -6,-23.75 0,0 -1,-11.25 -18,-17.25 z"
   id="path46"
   inkscape:connector-curvature="0"
   style="fill:url(#New_Pattern_Swatch_1)" />
	<path
   d="M 1,252.5 V 291 h 23.75 c 0,0 -1,-3.25 0,-5 l -0.5,-1.5 c 0,0 -18,-20.75 -23.25,-32 z"
   id="path48"
   inkscape:connector-curvature="0"
   style="fill:url(#New_Pattern_Swatch_1)" />
	<path
   d="m 114.75,290 59.25,0.5 1,-59.5 c 0,0 -5.25,-1.5 -9,0.5 l -6,2.75 -3.75,1.75 4,3.25 c 0,0 1,9.5 -9.75,9.75 l -2,-0.5 -1,2.25 -0.75,-2.25 -4.25,0.75 -0.75,2.25 c 0,0 -1.5,-3.75 -6,-2.25 0,0 -1.5,3.5 -4.5,3.5 0,0 1.5,1.25 -5,3.25 l -0.75,1.5 c 0,0 -1.75,14.25 -3,16.5 l -2.25,0.75 -4.5,11 z"
   id="path50"
   inkscape:connector-curvature="0"
   style="fill:url(#New_Pattern_Swatch_1)" />
	<path
   d="m 180.25,296.25 -0.5,39.5 c 0,0 20,-3 21.5,-8 0,0 -0.25,-1.5 3.5,-2.5 l 6.25,3 1.5,-1.75 10.5,1 c 0,0 14.75,-0.75 17.75,-5.5 v -24.5 z"
   id="path52"
   inkscape:connector-curvature="0"
   style="fill:url(#New_Pattern_Swatch_1)" />
	<path
   d="m 180,289.75 60.5,0.75 0.25,-82.5 h -9.5 c 0,0 5.25,16 -9,18.75 0,0 -37,-0.25 -41.25,3.75 z"
   id="path54"
   inkscape:connector-curvature="0"
   style="fill:url(#New_Pattern_Swatch_1)" />
	<path
   d="m 247.25,209 -0.5,81.25 30.25,0.5 c 0,0 10.25,-5.75 7.75,-26.75 v -5.5 l 23,26 0.5,-6.5 c 0,0 -43.25,-51.25 -47.25,-57.5 0,0 -10.25,-9.25 -11,-12 z"
   id="path56"
   inkscape:connector-curvature="0"
   style="fill:url(#New_Pattern_Swatch_1)" />
	<path
   d="m 241.75,203.25 v -4 L 229,186 c 0,0 -8,2.5 -2.25,9 0,0 4.25,4 3.75,7.25 z"
   id="path58"
   inkscape:connector-curvature="0"
   style="fill:url(#New_Pattern_Swatch_1)" />
	<path
   d="m 329.25,296 23.5,20.5 c 0,0 9.5,0.75 12.75,7.25 l 7.75,3.5 -0.25,-12 c 0,0 -25,-7.5 -33.5,-19 z"
   id="path60"
   inkscape:connector-curvature="0"
   style="fill:url(#New_Pattern_Swatch_1)" />
	<path
   d="M 379.5,317.25 V 331 c 0,0 5.5,12.25 27.25,8 0,0 26,-17 32.75,-20 l 0.25,-1.75 c 0,0 -39.25,9.75 -60.25,0 z"
   id="path62"
   inkscape:connector-curvature="0"
   style="fill:url(#New_Pattern_Swatch_1)" />
	<path
   d="M 446,315.25 V 317 c 0,0 18.75,-3.75 24.5,-9.75 0,0 -20.5,7.75 -24.5,8 z"
   id="path64"
   inkscape:connector-curvature="0"
   style="fill:url(#New_Pattern_Swatch_1)" />
	<path
   d="m 482,301.25 c 0,0 15.75,1.25 21,-5 L 490.25,296 Z"
   id="path66"
   inkscape:connector-curvature="0"
   style="fill:url(#New_Pattern_Swatch_1)" />
	<path
   d="m 514.25,296.25 c 0,0 -1.25,13.75 17.75,21 0,0 31.5,9.5 37.25,13.75 L 569,296.25 Z"
   id="path68"
   inkscape:connector-curvature="0"
   style="fill:url(#New_Pattern_Swatch_1)" />
	<path
   d="m 516,290.75 52.5,0.5 0.5,-28 c 0,0 -51.25,24.25 -53,27.5 z"
   id="path70"
   inkscape:connector-curvature="0"
   style="fill:url(#New_Pattern_Swatch_1)" />
	<path
   d="m 574.5,263.25 0.5,27 h 1.75 c 0,0 3.5,-29.5 24.5,-34 L 601.5,253 c 0,0 -16.5,-1 -27,10.25 z"
   id="path72"
   inkscape:connector-curvature="0"
   style="fill:url(#New_Pattern_Swatch_1)" />
	<path
   d="m 575.5,296.25 0.25,36.25 c 0,0 7.5,1.75 10.5,4.75 0,0 30.75,0.25 37.25,6.5 L 631,345 c 0,0 -30.25,-21.25 -28.5,-32.5 l -19,-16.75 z"
   id="path74"
   inkscape:connector-curvature="0"
   style="fill:url(#New_Pattern_Swatch_1)" />
	<path
   d="m 667.5,349 h 28.25 l -0.25,-16 c 0,0 -3.75,15 -28,16 z"
   id="path76"
   inkscape:connector-curvature="0"
   style="fill:url(#New_Pattern_Swatch_1)" />
	<path
   d="m 702,326 -0.5,23 h 10.75 c 0,0 -1.5,-10 0,-15.5 0,0 -2.75,-7.5 -2.5,-14.25 0,0 23.75,-14.75 23.5,-25.75 l -2.5,-0.25 c 0,0 -0.75,5.5 -28.75,32.75 z"
   id="path78"
   inkscape:connector-curvature="0"
   style="fill:url(#New_Pattern_Swatch_1)" />
	<path
   d="m 736.25,288.25 c 0,0 2.5,-3.25 2.5,-8.25 0,0 12,-9.5 12,-11.5 0,0 1.75,7 -10.25,19.75 z"
   id="path80"
   inkscape:connector-curvature="0"
   style="fill:url(#New_Pattern_Swatch_1)" />
	<path
   d="m 1,209.5 v 43 c 0,0 11,17.25 23.25,32 0,0 1.25,4.25 0.5,6.5 l 19,-0.25 0.25,-39 c 0,0 -5.5,-3 -3.25,-9.5 L 41,239 44.5,232.25 V 208.5 c 0,0 -42.5,0 -43.5,1 z"
   id="path82"
   inkscape:connector-curvature="0"
   style="fill:url(#New_Pattern_Swatch_3)" />
	<path
   d="m 49.75,258.25 v 32 L 67.5,291 c 0,0 1.5,-11.5 0.25,-19.5 0,0 -1.5,-3.25 -2,-0.5 0,0 -4.5,1.5 -7.25,-1 0,0 2.75,0.25 4,-1 0,0 -6.25,-2.5 -6.25,-4.5 v -2.75 z"
   id="path84"
   inkscape:connector-curvature="0"
   style="fill:url(#New_Pattern_Swatch_3)" />
	<polygon
   points="50.5,213.25 53,213.25 50.5,218.75 "
   id="polygon86"
   style="fill:url(#New_Pattern_Swatch_3)" />
	<polygon
   points="50.25,209.25 51.5,209.25 50.25,210.5 "
   id="polygon88"
   style="fill:url(#New_Pattern_Swatch_3)" />
	<polygon
   points="1,204 1,119.75 46,119.75 45,203.5 "
   id="polygon90"
   style="fill:url(#New_Pattern_Swatch_3)" />
	<path
   d="m 1,32.5 v 51 c 0,0 33.25,-16.25 44.5,-18.75 l 0.25,-32.5 z"
   id="path92"
   inkscape:connector-curvature="0"
   style="fill:url(#New_Pattern_Swatch_3)" />
	<polygon
   points="45.5,1 45.75,27.5 1,27.25 1,1 "
   id="polygon94"
   style="fill:url(#New_Pattern_Swatch_3)" />
	<polygon
   points="112.25,27.5 51.25,27.75 50.75,1 112.5,1 "
   id="polygon96"
   style="fill:url(#New_Pattern_Swatch_3)" />
	<path
   d="M 1,85 C 1,85 28.25,70.25 45.75,65.5 l 0.5,49 L 1,115 Z"
   id="path98"
   inkscape:connector-curvature="0"
   style="fill:url(#New_Pattern_Swatch_3)" />
	<polygon
   points="111,114.75 112.5,32.5 51.25,32 51,114.75 "
   id="polygon100"
   style="fill:url(#New_Pattern_Swatch_3)" />
	<path
   d="m 51.25,119.25 -1.5,83.75 6.5,1 c 0,0 1.75,-3.25 5.5,-4 l 2.5,-1.75 0.25,-3 c 0,0 13.5,-11.5 18.75,-8.25 l 1.25,-0.5 4.5,1.5 -3.5,-3 2,0.25 4.25,1.25 5.5,-0.25 c 0,0 -8,-4 -16.25,-3.5 l -3.25,1.75 2,-2.5 c 0,0 10,-1.75 20.25,5 0,0 8.5,2.25 10.25,5.75 l 0.75,-73 z"
   id="path102"
   inkscape:connector-curvature="0"
   style="fill:url(#New_Pattern_Swatch_3)" />
	<path
   d="m 128,208.25 c 0,0 20.25,13.75 14.75,20.25 l -0.5,1.25 c 0,0 0.5,7.5 -2.5,8.25 l 8.75,10.5 c 0,0 13,1.75 11.75,-9.25 l -2.75,-3.5 1.25,-0.75 c 0,0 12.5,-6.75 16.25,-4 v -23 z"
   id="path104"
   inkscape:connector-curvature="0"
   style="fill:url(#New_Pattern_Swatch_3)" />
	<path
   d="m 140.5,223 c 0,0 0.75,3 0.5,4.5 0,0 2.5,-2.5 -0.5,-4.5 z"
   id="path106"
   inkscape:connector-curvature="0"
   style="fill:url(#New_Pattern_Swatch_3)" />
	<path
   d="m 136.25,242.25 v 3.5 c 0,0 5.75,0.5 6.25,3.5 l 3.5,-1 c 0,0 -8,-5.75 -9.75,-6 z"
   id="path108"
   inkscape:connector-curvature="0"
   style="fill:url(#New_Pattern_Swatch_3)" />
	<path
   d="M 116,120.25 115.25,194 c 0,0 10,2.25 10,5.5 0,0 -5,-3.5 -9.25,-4.25 l -0.5,2 c 0,0 7,3.75 7.25,5.5 l 52.5,0.25 1.5,-83 z"
   id="path110"
   inkscape:connector-curvature="0"
   style="fill:url(#New_Pattern_Swatch_3)" />
	<polygon
   points="177.75,27 118,27.5 118,1 177.5,1 "
   id="polygon112"
   style="fill:url(#New_Pattern_Swatch_3)" />
	<polygon
   points="177,115 177.75,32 117.25,33 116,114.75 "
   id="polygon114"
   style="fill:url(#New_Pattern_Swatch_3)" />
	<path
   d="M 183.25,1 183,27 h 44.5 c 0,0 1.5,-17.25 8.5,-26 z"
   id="path116"
   inkscape:connector-curvature="0"
   style="fill:url(#New_Pattern_Swatch_3)" />
	<polygon
   points="243.5,26.75 239.25,26.75 243.5,14.5 "
   id="polygon118"
   style="fill:url(#New_Pattern_Swatch_3)" />
	<path
   d="m 242.5,32 v 83.25 h -60 v -27.5 c 0,0 49.5,-6.75 46.5,16.25 l 10.25,3.5 -3.75,-4.25 c 0,0 1.75,-4.75 -6.5,-7 0,0 -4,-10.75 -32.75,-11 l 1,-8.5 -14.5,7.75 0.25,-52.25 43.75,0.25 c 0,0 -2.5,24 12.25,32.5 0,0 1,-7.5 0.25,-13.25 0,0 -1.5,-13 -1,-19.75 z"
   id="path120"
   inkscape:connector-curvature="0"
   style="fill:url(#New_Pattern_Swatch_3)" />
	<path
   d="m 180.5,208 0.5,22.5 c 0,0 13.5,-4.75 41.25,-3.75 0,0 13.25,-2 9,-18.75 z"
   id="path122"
   inkscape:connector-curvature="0"
   style="fill:url(#New_Pattern_Swatch_3)" />
	<path
   d="m 230.5,202.25 c 0,0 0.5,-4.25 -6.75,-11.75 l -21.75,-1 c 0,0 47.5,-0.5 31,-38.5 0,0 0,-8.25 -35.5,-9.25 l -8.75,-5.5 c 0,0 42.25,2.5 44,-16.25 h -50.5 l -2,83 z"
   id="path124"
   inkscape:connector-curvature="0"
   style="fill:url(#New_Pattern_Swatch_3)" />
	<path
   d="m 233.5,120 c 0,0 2,17.75 -42,17.25 L 198,141 c 0,0 37,-3 38.25,16.5 0,0 9.5,26.25 -24.25,31.75 l 12.5,0.5 4.5,-3.75 12.75,13.25 0.5,-79.25 z"
   id="path126"
   inkscape:connector-curvature="0"
   style="fill:url(#New_Pattern_Swatch_3)" />
	<path
   d="m 182.75,84.5 -0.25,3.25 c 0,0 46.5,-7.5 46.5,16.25 l 8.5,3 0.5,-1 -2.5,-2.75 c 0,0 0.5,-5.25 -6.5,-7 0,0 -5.5,-10.25 -32.75,-11 l 1,-8.5 z"
   id="path128"
   inkscape:connector-curvature="0"
   style="fill:url(#New_Pattern_Swatch_1)" />
	<path
   d="m 226.75,32.5 11.5,-0.5 c 0,0 2.25,29.25 0.75,33 0,0 -12.75,-7.5 -12.25,-32.5 z"
   id="path130"
   inkscape:connector-curvature="0"
   style="fill:url(#New_Pattern_Swatch_1)" />
	<path
   d="m 227.5,27 c 0,0 2.25,-18.5 8.5,-26 h 8 l -0.5,13.5 c 0,0 -3.25,8.5 -4.25,12.25 z"
   id="path132"
   inkscape:connector-curvature="0"
   style="fill:url(#New_Pattern_Swatch_1)" />
	<path
   d="m 248.75,115.25 35.25,0.25 8.75,-11 -5.5,2.5 -11.75,1.25 -27.25,3.5 c 0,0 -0.25,2.75 0.5,3.5 z"
   id="path134"
   inkscape:connector-curvature="0"
   style="fill:url(#New_Pattern_Swatch_1)" />
	<polygon
   points="309.5,52 291,79.5 291,83.25 294.25,81.25 309.5,59.25 "
   id="polygon136"
   style="fill:url(#New_Pattern_Swatch_1)" />
	<polygon
   points="321,33 316.25,39.25 315.5,51.25 328.25,33.5 "
   id="polygon138"
   style="fill:url(#New_Pattern_Swatch_1)" />
	<path
   d="m 327,28.25 c 0,0 14.25,-18 30.5,-25.25 h 2.75 l -29,25 z"
   id="path140"
   inkscape:connector-curvature="0"
   style="fill:url(#New_Pattern_Swatch_1)" />
	<polygon
   points="374.75,116 375,33.25 315.5,33.5 315.5,115.5 "
   id="polygon142"
   style="fill:url(#New_Pattern_Swatch_3)" />
	<polygon
   points="440.5,116.25 440.5,35 380,33.75 380,116 "
   id="polygon144"
   style="fill:url(#New_Pattern_Swatch_3)" />
	<polygon
   points="505.25,116.5 505.75,36.25 445.5,35.25 445.75,116.25 "
   id="polygon146"
   style="fill:url(#New_Pattern_Swatch_3)" />
	<polygon
   points="569.75,117.75 569,36.75 511.25,35.75 511.25,115.5 "
   id="polygon148"
   style="fill:url(#New_Pattern_Swatch_3)" />
	<polygon
   points="314.25,208.25 313,284 319,290.5 373,291 373.75,208 "
   id="polygon150"
   style="fill:url(#New_Pattern_Swatch_3)" />
	<polygon
   points="441,291.75 439.75,208.5 379.5,208.5 379,291.25 "
   id="polygon152"
   style="fill:url(#New_Pattern_Swatch_3)" />
	<polygon
   points="505.5,291.5 505.75,208.25 446,208.25 445.75,291.75 "
   id="polygon154"
   style="fill:url(#New_Pattern_Swatch_3)" />
	<polygon
   points="440,203.75 440.5,121 380,121.25 379.5,203.5 "
   id="polygon156"
   style="fill:url(#New_Pattern_Swatch_3)" />
	<polygon
   points="505.75,204.25 505.5,121 446,121 446.5,203 "
   id="polygon158"
   style="fill:url(#New_Pattern_Swatch_3)" />
	<polygon
   points="569,203.5 569.5,122.25 510.5,121.25 511.25,203.25 "
   id="polygon160"
   style="fill:url(#New_Pattern_Swatch_3)" />
	<polygon
   points="568.5,291.25 569,208 511.5,208 510.75,291.75 "
   id="polygon162"
   style="fill:url(#New_Pattern_Swatch_3)" />
	<path
   d="m 574,208.5 1,81.75 h 57.25 V 288 c 0,0 -39,-24.25 -30,-47.75 0,0 -8,21.5 30.25,46.5 l 0.25,-77.75 -22,-0.25 c 0,0 -4,5.75 0,15.25 0,0 -5.75,-7 -1,-15.5 z"
   id="path164"
   inkscape:connector-curvature="0"
   style="fill:url(#New_Pattern_Swatch_3)" />
	<polygon
   points="696,289.5 696,209.5 638,208.75 637.75,290 "
   id="polygon166"
   style="fill:url(#New_Pattern_Swatch_3)" />
	<polygon
   points="756,289.25 757.75,209.5 701.25,209.25 702.25,288.75 "
   id="polygon168"
   style="fill:url(#New_Pattern_Swatch_3)" />
	<path
   d="m 637.25,123.5 0.5,67 c 0,0 24,-4.5 38,6.25 0,0 -17.25,-10.25 -38,-5 v 12.5 l 59,0.5 L 695.5,123 Z"
   id="path170"
   inkscape:connector-curvature="0"
   style="fill:url(#New_Pattern_Swatch_3)" />
	<path
   d="m 574.75,122.5 -0.75,80.75 58.75,2.5 -0.5,-24 c 0,0 -36.75,6.25 -36.5,-26.5 0,0 0.25,30 36.25,24.75 l -0.5,-57 z"
   id="path172"
   inkscape:connector-curvature="0"
   style="fill:url(#New_Pattern_Swatch_3)" />
	<polygon
   points="637.75,118.25 636.75,37.5 694.25,38 696,118.5 "
   id="polygon174"
   style="fill:url(#New_Pattern_Swatch_3)" />
	<polygon
   points="632.25,117.5 632,38 574,36.5 574.5,117.75 "
   id="polygon176"
   style="fill:url(#New_Pattern_Swatch_3)" />
	<polygon
   points="693.75,1 637,1 636.75,33 693.75,32.25 "
   id="polygon178"
   style="fill:url(#New_Pattern_Swatch_3)" />
	<polygon
   points="606,31.75 574,32 574,1 623.75,1 "
   id="polygon180"
   style="fill:url(#New_Pattern_Swatch_3)" />
	<path
   d="m 375,61.25 c 0,0 -26,-2.25 -38,15.75 l -13.25,5 14,-1.75 c 0,0 23,20 37.25,21.75 l -0.5,-3.25 c 0,0 -21,-3.5 -27.25,-16.75 0,0 3.25,-4.5 10.5,-5.5 0,0 -2.5,12.5 17,12.75 z"
   id="path182"
   inkscape:connector-curvature="0"
   style="fill:url(#New_Pattern_Swatch_1)" />
	<path
   d="m 380,61.5 c 0,0 29.25,6 41.25,30 h -1.5 c 0,0 -7.25,-8.5 -10.5,-10.75 0,0 -9.25,-1 -14.5,-6.5 0,0 -6,-5.5 -12.75,-5.5 l -0.25,2 c 0,0 14.75,8.75 14.75,14.25 l 6.5,5 c 0,0 1,5.25 -4.75,0 L 389.5,85 384,81 c 0,0 -1.75,6 -4.25,6.5 z"
   id="path184"
   inkscape:connector-curvature="0"
   style="fill:url(#New_Pattern_Swatch_1)" />
	<path
   d="m 382,176 c 0,0 8,4.5 12.75,1.75 0,0 15.5,-0.25 18,8.5 0,0 -10,-3.5 -18,-2.75 0,0 -11.25,3.75 -12.75,-7.5 z"
   id="path186"
   inkscape:connector-curvature="0"
   style="fill:url(#New_Pattern_Swatch_1)" />
	<path
   d="m 416,190.75 c 0,0 5.25,13.5 24.25,10 L 441,191.5 c 0,0 -18.25,11 -25,-0.75 z"
   id="path188"
   inkscape:connector-curvature="0"
   style="fill:url(#New_Pattern_Swatch_1)" />
	<path
   d="m 447,190.25 c 0,0 6.25,-1.5 9.75,2.75 0,0 11.5,9.75 17.25,-2 0,0 0.25,10.25 -17.75,7.75 0,0 -8.25,-3 -10,0 z"
   id="path190"
   inkscape:connector-curvature="0"
   style="fill:url(#New_Pattern_Swatch_1)" />
	<path
   d="m 460.75,103.5 c 0,0 10.75,-27.75 44.75,-19.75 l -0.25,10.5 c 0,0 -21.75,-3.75 -37.25,9 0,0 -3,2.5 -7.25,0.25 z"
   id="path192"
   inkscape:connector-curvature="0"
   style="fill:url(#New_Pattern_Swatch_1)" />
	<path
   d="m 479.5,113.75 c 0,0 -3,-9.5 19.75,-6.75 l 6,1.5 v 8 l -18.75,-0.75 c 0,0 -5.75,-2.25 -7,-2 z"
   id="path194"
   inkscape:connector-curvature="0"
   style="fill:url(#New_Pattern_Swatch_1)" />
	<path
   d="m 511.25,84.75 -0.25,9.5 c 0,0 26.25,10.75 29,22 l 4.5,-0.25 c 0,0 -28,-27.25 -33.25,-31.25 z"
   id="path196"
   inkscape:connector-curvature="0"
   style="fill:url(#New_Pattern_Swatch_1)" />
	<path
   d="m 511.25,110.75 7.5,3 c 0,0 10.25,0 10.25,1.5 l -17.75,0.25 z"
   id="path198"
   inkscape:connector-curvature="0"
   style="fill:url(#New_Pattern_Swatch_1)" />
	<path
   d="m 514,121 c 0,0 7,5 9.5,4.5 l 3.5,-2.75 6.5,0.25 c 0,0 8.25,4.5 10.5,-1 z"
   id="path200"
   inkscape:connector-curvature="0"
   style="fill:url(#New_Pattern_Swatch_1)" />
	<polygon
   points="372.75,244.5 353.75,226.25 363.25,242.5 372,251.75 "
   id="polygon202"
   style="fill:url(#New_Pattern_Swatch_1)" />
	<path
   d="m 379.25,247 0.25,9.5 c 0,0 29.75,23.25 61.5,9.5 l -0.5,-7.5 c 0,0 -44.25,-2.75 -61.25,-11.5 z"
   id="path204"
   inkscape:connector-curvature="0"
   style="fill:url(#New_Pattern_Swatch_1)" />
	<path
   d="M 446,263.5 472.75,245 c 0,0 8.25,0.25 5.5,-6.75 0,0 -13,-8 -32,-10.5 l -0.5,18 20.75,0.25 c 0,0 -16,9.75 -20.5,11.75 z"
   id="path206"
   inkscape:connector-curvature="0"
   style="fill:url(#New_Pattern_Swatch_1)" />
	<path
   d="m 440,225.75 v 20.5 c 0,0 -18,0.25 -30.25,-1.5 0,0 -5,2.25 -6,-2 l -24,-12.75 0.75,-19.25 c 0,0 27.25,5 31.5,12 0,0 18.75,-1.25 28,3 z"
   id="path208"
   inkscape:connector-curvature="0"
   style="fill:url(#New_Pattern_Swatch_1)" />
	<path
   d="m 373.75,209.75 0.25,15.5 c 0,0 -23.75,-9 -28.25,-17.25 l 19,0.25 z"
   id="path210"
   inkscape:connector-curvature="0"
   style="fill:url(#New_Pattern_Swatch_1)" />
	<path
   d="m 292.25,297.5 c 0,0 1.25,18.25 -7.5,31 0,0 -5.75,-10 -5.75,-14 0,0 -4,-8 -0.5,-10.75 l 3.25,-6.25 z"
   id="path212"
   inkscape:connector-curvature="0"
   style="fill:url(#New_Pattern_Swatch_1)" />
	<path
   d="m 269.25,296.75 c 0,0 -11.75,18 -22.25,23 l 0.25,-21.25 z"
   id="path214"
   inkscape:connector-curvature="0"
   style="fill:url(#New_Pattern_Swatch_1)" />
	<path
   d="m 602.25,241 c 0,0 6.5,-11.5 9.25,-12 l 21,7 -0.25,-3.5 c 0,0 -22.25,0.5 -20.75,-9 0,0 -6.75,4.75 -9.25,17.5 z"
   id="path216"
   inkscape:connector-curvature="0"
   style="fill:url(#New_Pattern_Swatch_1)" />
	<path
   d="m 638.75,233.75 -0.5,3.75 c 0,0 9.75,3.75 10,6.25 0,0 12,5 15.75,3.25 v -2 c 0,0 -18.25,-11.75 -25.25,-11.25 z"
   id="path218"
   inkscape:connector-curvature="0"
   style="fill:url(#New_Pattern_Swatch_1)" />
	<path
   d="m 615.5,203.5 c 0,0 11.75,-9.5 16.5,-10 l 0.25,-11.75 c 0,0 -22.75,3.75 -30.75,-8.5 l 9.5,11.25 -0.5,4.25 -21.25,-7.5 21,10 v 2.5 l 0.5,10 z"
   id="path220"
   inkscape:connector-curvature="0"
   style="fill:url(#New_Pattern_Swatch_1)" />
	<polygon
   points="646,188.5 641.25,183.75 638.25,182.75 638.5,189.25 "
   id="polygon222"
   style="fill:url(#New_Pattern_Swatch_1)" />
	<path
   d="m 672.25,194.75 13,10 6.25,-0.5 c 0,0 -1,-4.75 -19.25,-9.5 z"
   id="path224"
   inkscape:connector-curvature="0"
   style="fill:url(#New_Pattern_Swatch_1)" />
	<polygon
   points="570,73.5 569.5,68 564.25,63 "
   id="polygon226"
   style="fill:url(#New_Pattern_Swatch_1)" />
	<path
   d="m 574.75,87.75 v 11.5 l 7.25,17.25 1.5,0.25 c 0,0 -4.75,-28.75 -8.75,-29 z"
   id="path228"
   inkscape:connector-curvature="0"
   style="fill:url(#New_Pattern_Swatch_1)" />
	<path
   d="m 631.5,126.75 c 0,0 -29,-5.25 -35,18.5 l -2,-8 2.5,2.5 c 0,0 7.5,-14.75 28.25,-14.25 l -8,-2.75 14.25,0.25 z"
   id="path230"
   inkscape:connector-curvature="0"
   style="fill:url(#New_Pattern_Swatch_1)" />
	<path
   d="M 632.25,117.5 V 108 c 0,0 -5.5,5 -6.25,9 z"
   id="path232"
   inkscape:connector-curvature="0"
   style="fill:url(#New_Pattern_Swatch_1)" />
	<path
   d="M 637.75,118.25 H 639 c 0,0 13.5,-16.5 14.75,-59.25 l 18,-20.75 -9.5,-0.5 -10,14.5 -0.5,-14.25 -15,-0.5 z"
   id="path234"
   inkscape:connector-curvature="0"
   style="fill:url(#New_Pattern_Swatch_1)" />
	<path
   d="m 631.25,56 -1.5,0.75 -1,14 c 0,0 -8.5,-27.75 -12.5,-29.25 l -4.25,4.75 -4.5,-8.5 23.5,0.5 c 0,0 0.5,16 0.25,17.75 z"
   id="path236"
   inkscape:connector-curvature="0"
   style="fill:url(#New_Pattern_Swatch_1)" />
	<path
   d="m 603.25,32.25 28,0.75 0.25,-32 h -36 c 0,0 9,15.5 7.75,31.25 z"
   id="path238"
   inkscape:connector-curvature="0"
   style="fill:url(#New_Pattern_Swatch_1)" />
	<path
   d="m 637.25,10.5 -0.5,11 c 0,0 6,4.25 6,11.5 l 8.5,-0.5 c 0,0 -4.5,-18 -5.75,-19.25 0,0 20.5,-4.75 31.25,-4.75 L 681,7 693.75,6.75 V 3.5 C 693.75,3.5 680.5,3.25 680,1 h -8.75 c 0,0 2.75,5.25 -7.75,6.5 0,0 -23,-1.25 -26.25,3 z"
   id="path240"
   inkscape:connector-curvature="0"
   style="fill:url(#New_Pattern_Swatch_1)" />
	<polygon
   points="693.75,14 693.75,32.25 677.75,32.5 "
   id="polygon242"
   style="fill:url(#New_Pattern_Swatch_1)" />
	<path
   d="M 765.75,1 H 799 V 35.25 L 766,35.5 V 22 c 0,0 4.75,-14.5 -0.25,-21 z"
   id="path244"
   inkscape:connector-curvature="0"
   style="fill:url(#New_Pattern_Swatch_1)" />
	<polygon
   points="766,39.75 763,57.25 763.25,118 799,118.75 799,40.25 "
   id="polygon246"
   style="fill:url(#New_Pattern_Swatch_1)" />
	<path
   d="M 799,124.25 V 206 l -33,-0.5 c 0,0 0.25,-7.25 -2.25,-10.5 v -72 z"
   id="path248"
   inkscape:connector-curvature="0"
   style="fill:url(#New_Pattern_Swatch_1)" />
	<path
   d="m 768,318 c 0,0 16.25,22 17.75,31 H 799 v -22.25 c 0,0 -15.25,-11.75 -20.75,-11.75 l -10.75,-5 2.5,4.25 -1.75,0.5 z"
   id="path250"
   inkscape:connector-curvature="0"
   style="fill:url(#New_Pattern_Swatch_1)" />
	<path
   d="M 179.75,335.75 179.5,349 h 61.25 v -1.25 c 0,0 -21.75,-7 -29.75,-19.5 l -6.25,-3 c 0,0 -3.25,0.5 -4.5,4.25 0,0 -12,6.75 -20.5,6.25 z"
   id="path252"
   inkscape:connector-curvature="0"
   style="fill:url(#New_Pattern_Swatch_3)" />
	<path
   d="m 211.75,327.5 c 0,0 5.75,11.5 29,19.5 v -23.75 h -1 c 0,0 -11.5,6.25 -21.5,3.5 z"
   id="path254"
   inkscape:connector-curvature="0"
   style="fill:url(#New_Pattern_Swatch_3)" />
	<path
   d="m 247,349 h 59.5 l 0.75,-52.25 -14,0.25 c 0,0 -1,15.5 -2.75,19 0,0 -4.5,12.5 -5.75,12.5 0,0 -5.5,-10.75 -6.75,-16 0,0 -2.75,-6 1.5,-10.75 l 2.25,-4.25 -12.5,-0.75 c 0,0 -12.5,18.75 -22.25,23 z"
   id="path256"
   inkscape:connector-curvature="0"
   style="fill:url(#New_Pattern_Swatch_3)" />
	<path
   d="m 277,290.75 c 0,0 11.75,-9.25 7.75,-31.25 0,0 13.25,11.75 23,25 l -0.5,7.25 z"
   id="path258"
   inkscape:connector-curvature="0"
   style="fill:url(#New_Pattern_Swatch_3)" />
	<path
   d="m 308.25,278 -0.25,-70 -58,0.5 c 0,0 23.25,31.5 58.25,69.5 z"
   id="path260"
   inkscape:connector-curvature="0"
   style="fill:url(#New_Pattern_Swatch_3)" />
	<polygon
   points="310,121 247.25,120.25 247,203 309,203.25 "
   id="polygon262"
   style="fill:url(#New_Pattern_Swatch_3)" />
	<path
   d="m 284.75,115.25 25.75,-0.25 -1,-55.75 -11.75,17.5 -3.5,4.5 -2.75,1.25 c 0,0 -1.75,-1.75 0.5,-4.5 L 309.5,52 309.75,33.25 248,32 l 0.25,79.75 38,-4.75 6.5,-2.5 z"
   id="path264"
   inkscape:connector-curvature="0"
   style="fill:url(#New_Pattern_Swatch_3)" />
	<polygon
   points="309.75,1 249,1 248.25,27.25 310,28.25 "
   id="polygon266"
   style="fill:url(#New_Pattern_Swatch_3)" />
	<path
   d="m 315,1 h 59.75 v 28 l -43.5,-0.25 7.25,-7 c 0,0 11,-9.5 12.75,-11.25 l 9,-7.5 h -2.75 c 0,0 -19.25,8.75 -30.5,25.25 L 315.25,28 Z"
   id="path268"
   inkscape:connector-curvature="0"
   style="fill:url(#New_Pattern_Swatch_3)" />
	<polygon
   points="373.75,204 374.75,120.5 315.75,120.5 314.75,202.75 "
   id="polygon270"
   style="fill:url(#New_Pattern_Swatch_3)" />
	<polygon
   points="313,290.75 318,291 313,285.75 "
   id="polygon272"
   style="fill:url(#New_Pattern_Swatch_3)" />
	<polygon
   points="799,290.25 799,210.25 763.5,209.75 763,290 "
   id="polygon274"
   style="fill:url(#New_Pattern_Swatch_3)" />
	<path
   d="m 757,123.75 v 65.5 c 0,0 -33.75,-43 -56.25,-42 L 700.5,123 Z"
   id="path276"
   inkscape:connector-curvature="0"
   style="fill:url(#New_Pattern_Swatch_3)" />
	<path
   d="m 701,148.5 0.25,55.25 56,1.5 v -13.5 c 0,0 -32.25,-43 -56.25,-43.25 z"
   id="path278"
   inkscape:connector-curvature="0"
   style="fill:url(#New_Pattern_Swatch_3)" />
	<path
   d="m 763.25,196 -0.25,9.75 3,-0.25 c 0,0 -0.5,-9.25 -2.75,-9.5 z"
   id="path280"
   inkscape:connector-curvature="0"
   style="fill:url(#New_Pattern_Swatch_3)" />
	<polygon
   points="756.75,118.75 755.5,39.75 699.75,38.25 700.5,117.5 "
   id="polygon282"
   style="fill:url(#New_Pattern_Swatch_3)" />
	<polygon
   points="762.75,55.5 766,39.75 762.75,40 "
   id="polygon284"
   style="fill:url(#New_Pattern_Swatch_3)" />
	<path
   d="M 762.25,35.25 766,35.5 V 22 c 0,0 5.25,-16.5 -0.25,-21 h -4.5 z"
   id="path286"
   inkscape:connector-curvature="0"
   style="fill:url(#New_Pattern_Swatch_3)" />
	<polygon
   points="699.5,1 699.5,33.75 755.5,34.25 755.5,1 "
   id="polygon288"
   style="fill:url(#New_Pattern_Swatch_3)" />
	<polygon
   points="440.5,30 380,29 380,1 439.75,1 "
   id="polygon290"
   style="fill:url(#New_Pattern_Swatch_3)" />
	<polygon
   points="505.75,31 445.5,31 445.75,1 504.25,1 "
   id="polygon292"
   style="fill:url(#New_Pattern_Swatch_3)" />
	<polygon
   points="568.75,31.75 510.75,31 510.5,1 568.75,1 "
   id="polygon294"
   style="fill:url(#New_Pattern_Swatch_3)" />
	<path
   d="m 66,292.5 c 0,0 -1.75,7.75 6,13.5 0,0 11.25,8.5 28.75,3.5 0,0 8.75,-0.25 10.75,-15.25 0,0 -21.75,4.75 -26.75,-5.75 0,0 7,9.75 27.5,4 0,0 3,-1.75 3.25,-8 0,0 4.5,-8.75 6.25,-17.25 0,0 3,-7.25 2.75,-14 0,0 -2.75,-2.75 -2.5,-6.25 l 1,-2.75 -3,-1.25 0.75,-2.25 -7.25,2.75 c 0,0 3.5,-4 7.5,-5.25 l 1.5,-1.5 c 0,0 2,-2.75 -2,-8.25 l -1,1 c 0,0 -4.75,0.25 -4.5,-7 l -1.25,-3 0.25,-2 c 0,0 -9.5,-1 -11.75,0.5 L 101,216.75 c 0,0 -4.75,-0.25 -5.25,1.25 l -3.25,-0.5 c 0,0 -12,1.75 -7.5,5.5 l -3,0.25 c 0,0 0.75,9 -2.25,12.5 L 81,238 l -0.5,2 c 0,0 -2,9.5 -3.5,13 l 1.5,2.75 -2.5,-2.5 c 0,0 -5,-4.25 -3.75,1 0,0 -0.5,9 6,14 0,0 2.25,10.75 -2.25,12 0,0 -6.5,-2.5 -6.75,-4.5 0,0 0.25,16.25 -3.25,16.75 z"
   id="path296"
   inkscape:connector-curvature="0"
   style="fill:#ffffff" />
	<path
   d="m 55.25,256.25 c 0,0 2.25,5.5 5.25,6.5 l 3.75,1.25 h 2.25 v -3 l -1.75,-1.75 h -2 l -3.5,-2.5 3.25,4.5 -4.75,-4 z"
   id="path298"
   inkscape:connector-curvature="0"
   style="fill:#ffffff" />
	<path
   d="m 86.5,241 c 0,0 15.75,0.5 15.75,2.25 l -0.75,1 -2.75,-1 -11.75,-1 z"
   id="path300"
   inkscape:connector-curvature="0" />
	<path
   d="m 100,263.25 c 0,0 -2.5,3.5 1.25,4.25 0,0 5,-2 5,0.75 0,0 3.75,2.5 4.75,0 0,0 1.75,0 1.75,-3.25 l -3.25,-15.75 c 0,0 4.25,5 6.5,5 0,0 -3.75,2 -3.75,3.75 l 1,6 c 0,0 0.5,3 -1.5,5.25 0,0 -2.75,2 -6.25,-0.5 0,0 -0.75,-2 -3.5,-0.5 0,0 -5.5,-0.5 -2,-5 z"
   id="path302"
   inkscape:connector-curvature="0"
   style="fill:#777777" />
	<polygon
   points="113,275.5 110.25,277.25 100.5,277.5 "
   id="polygon304"
   style="fill:#777777" />
	<circle
   cx="92.375"
   cy="248.125"
   r="1.875"
   id="circle306" />
	<circle
   cx="117.125"
   cy="247.125"
   r="1.875"
   id="circle308" />
</g>
<g
   inkscape:groupmode="layer"
   id="Captions"
   inkscape:label="Captions">
	
	


	
	<path
   id="rect992"
   style="fill:#ffffff;fill-rule:evenodd;stroke:#000000;stroke-width:3;stroke-opacity:1"
   d="m 21.41609,154.71899 h 65.312492 c 5.54,0 10,4.46 10,10 v 5 c 0,5.54 -4.46,10 -10,10 H 21.41609 c -5.54,0 -10,-4.46 -10,-10 v -5 c 0,-5.54 4.46,-10 10,-10 z" /><text
   font-size="13"
   id="text317"
   style="font-style:normal;font-variant:normal;font-weight:normal;font-stretch:normal;font-size:12px;font-family:'PT Sans';-inkscape-font-specification:'PT Sans, Normal';font-variant-ligatures:normal;font-variant-caps:normal;font-variant-numeric:normal;font-feature-settings:normal;text-align:start;writing-mode:lr-tb;text-anchor:start"
   x="17.610399"
   y="170.267">Damn pixels…</text>


	<circle
   cx="50"
   cy="194"
   r="6.5"
   id="circle319"
   style="fill:#ffffff;stroke:#000000;stroke-width:3" />
</g>
</svg>
