<svg xmlns="http://www.w3.org/2000/svg" width="600" height="600" viewBox="0 0 158.75 158.75"><path fill="#c7fe02" d="M79.375 7.276V4.763H84.402V9.79H79.375z"/><path fill="#c6fe02" d="M148.96 151.21v-2.514h5.028V153.723h-5.028zM114.3 7.275V4.763h4.762V9.79H114.3z"/><path fill="#c4fe02" d="M69.585 7.276V4.763h9.79V9.79h-9.79z"/><path fill="#c2fe02" d="M148.96 146.182v-2.513h5.028V148.696h-5.028zm0-109.008V34.66h5.028V39.687h-5.028z"/><path fill="#c1fe02" d="M148.96 76.861v-2.513h5.028V79.375h-5.028zM64.558 7.276V4.763H69.585V9.79H64.558zm34.66 0V4.763h10.055V9.79H99.219z"/><path fill="#c0fe02" d="M138.906 151.21v-2.514H143.933V153.723H138.906zM109.273 7.275V4.763H114.3V9.79H109.273zm29.633 0V4.763H143.933V9.79H138.906z"/><path fill="#bffe02" d="M143.933 151.21v-2.514H148.96V153.723H143.933zm5.027-54.505v-2.513h5.028V99.219h-5.028z"/><path fill="#befe02" d="M143.933 12.303V9.79H148.96V14.817H143.933zm-59.53-5.027V4.763h5.026V9.79H84.402z"/><path fill="#bdfe02" d="M104.246 101.6v-2.381H109.273v4.762H104.246z"/><path fill="#bcfe02" d="M89.43 7.276V4.763h9.789V9.79h-9.79zm29.633 0V4.763H124.09V9.79H119.063z"/><path fill="#bbfe02" d="M109.273 151.21v-2.514H114.3V153.723H109.273zm39.687-79.376v-2.513h5.028V74.348h-5.028zM124.09 7.276V4.763H129.117V9.79H124.09z"/><path fill="#bafe02" d="M124.09 151.21v-2.514H129.117V153.723H124.09zm24.87-19.844v-2.514h5.028V133.88h-5.028zm0-44.715v-2.513h5.028V89.165h-5.028zm0-74.348V9.79h5.028V14.817h-5.028zm-19.843-5.027V4.763h9.789V9.79h-9.789z"/><path fill="#b9fe02" d="M109.273 131.366v-2.514H114.3V133.88H109.273zm39.687-64.559v-2.513h5.028V69.32h-5.028zm0-24.738v-2.382h5.028v4.763h-5.028z"/><path fill="#b8fe02" d="M148.96 141.287v-2.38h5.028V143.668h-5.028zM99.22 96.706v-2.513H104.246V99.219H99.219zm49.741-5.027v-2.513h5.028V94.192h-5.028zm0-9.922v-2.381h5.028v4.762h-5.028zm0-49.61v-2.513h5.028V34.66h-5.028zM114.3 12.304V9.79h4.762V14.817H114.3zM39.688 7.276V4.763H44.715V9.79h-5.028z"/><path fill="#b7fe02" d="M148.96 54.372V44.45h5.028v19.844h-5.028zm0-32.147v-7.408h5.028v14.816h-5.028zM54.77 7.276V4.763h4.762V9.79H54.77z"/><path fill="#b6fe02" d="M148.96 106.495v-2.514h5.028V109.008h-5.028zm-5.027-39.688v-2.513H148.96V69.32H143.933zm-5.027-49.477v-2.513H143.933V19.844H138.906z"/><path fill="#b5fe02" d="M134.144 151.21v-2.514h4.762V153.723h-4.762zm14.816-14.817v-2.514h5.028V138.906h-5.028zm0-19.976v-7.409h5.028v14.817h-5.028z"/><path fill="#b4fe02" d="M129.117 71.834v-2.513H134.144V74.348H129.117zm9.79-29.765v-2.382h5.026v4.763H138.906zm-19.845-29.766V9.79h10.055V14.817h-10.055z"/><path fill="#b3fe02" d="M148.96 126.339v-2.514h5.028V128.852h-5.028zM134.144 76.86v-2.513h4.762V79.375h-4.762z"/><path fill="#b2fe02" d="M129.117 151.21v-2.514H134.144V153.723H129.117zm9.79-138.907V9.79h5.026V14.817H138.906z"/><path fill="#b1fe02" d="M143.933 76.861v-2.513H148.96V79.375H143.933zm0-14.949v-2.38H148.96V64.293H143.933zm0-44.582v-2.513H148.96V19.844H143.933z"/><path fill="#b0fe02" d="M138.906 76.861v-2.513H143.933V79.375H138.906zm5.027-29.897V44.45H148.96V49.477H143.933zm-14.816-34.66V9.79H134.144V14.817H129.117z"/><path fill="#affe02" d="M138.906 91.678v-2.513H143.933V94.192H138.906zm5.027-49.61v-2.38H148.96V44.45H143.933zm-9.79-29.765V9.79h4.763V14.817h-4.762z"/><path fill="#aefe02" d="M94.456 148.696v-5.027h4.763v-9.79h-4.763v-10.054h4.763v-4.762h10.054v-5.028H114.3V109.008h4.762v14.817h10.055v-4.762H134.144v-10.055H129.117V94.192H124.09V79.375h-5.028V64.294h-9.789V59.53H114.3V54.504H109.273V49.477h9.789V54.504h5.028V59.531h10.054V64.293h4.762v-9.789h-4.762V49.477h4.762V44.45H143.933V49.477H148.96v10.054H143.933v9.79H148.96V74.348h-14.816V79.375h14.816v19.844h5.028v4.762h-5.028v44.715h-24.87V153.723h-9.79V148.696H109.273V153.723H94.456zm14.817-7.408v-2.382H104.246v4.763H109.273zm5.027-9.922v-2.514H109.273V133.88H114.3zm24.606-24.871v-2.514h-4.762V109.008h4.762zm5.027-14.817v-2.513H138.906V94.192H143.933zm-9.79-19.844v-2.513h-5.026V74.348H134.144zm-114.3 74.348v-2.513h5.028v-4.763H29.898V143.668H24.87v5.028H19.844zm39.688-47.096V84.138H64.558v-4.763h14.817V74.348H84.402V79.375H79.375v4.762h-4.763v5.028H69.585V94.192H64.558v19.843H59.531zm39.688 5.028v-4.895H104.246V94.192H99.219V89.165h-4.763V84.138H89.43v-4.763H94.456v4.762h9.79v10.055H109.273V99.219H104.246v4.762H109.273V109.008H99.219zm34.925-66.94V34.66H129.117V24.606h-10.055v-4.762H114.3V14.817H109.273V9.79H114.3V14.817h24.606V19.844h10.054v19.844h-14.816zm-124.09-24.87V9.79H5.027V4.763H10.054V9.79H15.081V4.763H19.843V9.79H15.082V14.817H10.054zm14.817-5.028V4.763h14.816V9.79H24.871zm19.844 0V4.763h10.054V9.79H44.715zm14.816 0V4.763H64.558V9.79H59.531zm84.402 0V4.763H148.96V9.79H143.933z"/><path fill="#aefd02" d="M124.09 121.444v-2.382H129.117V114.035H134.144V119.062H129.117v4.763H124.09z"/><path fill="#aefc02" d="M84.402 151.21v-2.514h10.054V153.723H84.402z"/><path fill="#aefc01" d="M89.43 146.182v-2.513h5.026V148.696H89.43zM5.026 22.225V9.79H10.054V4.763H15.081V9.79H10.054v24.87H5.027zM19.844 7.276V4.763H24.87V9.79H19.844z"/><path fill="#aefb01" d="M79.375 151.21v-2.514H84.402V153.723H79.375zM10.055 17.33v-2.513h5.026V9.79h14.817V14.817H15.08V19.844H10.054z"/><path fill="#aefa01" d="M124.09 27.12v-2.514H129.117V29.633H124.09z"/><path fill="#aef901" d="M84.402 146.182v-2.513H89.43V148.696H84.402z"/><path fill="#aef900" d="M99.219 12.303V9.79h10.054V14.817H99.219zm49.741-5.027V4.763h5.028V9.79h-5.028z"/><path fill="#aef700" d="M134.144 106.495v-2.514h4.762V109.008h-4.762zm-124.09-84.27v-2.381H15.081v4.762H10.054z"/><path fill="#aef600" d="M129.117 111.522v-2.514H134.144V114.035H129.117zM5.027 37.174V34.66H10.054v5.028H5.027zm64.558-24.87V9.79h14.817V14.817H69.585zm24.871 0V9.79H99.218V14.817H94.457z"/><path fill="#aef500" d="M79.375 146.182v-2.513H84.402V148.696H79.375zm24.87-4.894v-2.382h5.028v4.763H104.246zm14.817-19.844v-2.382h5.028v4.763H119.063zm15.082-79.375v-2.382h4.762v4.763h-4.762zm-124.09-14.95v-2.513H15.081V29.633H10.054z"/><path fill="#aef400" d="M5.027 106.627V59.531H10.054V49.477H5.027V44.45H10.054V49.477H15.081V44.45h9.79V49.477h-9.79V54.504H19.843v9.79H15.082V69.32H10.054v44.714H15.081v14.817H19.843V123.825h5.028v19.844h10.054V148.696h9.79V153.723H5.027zm19.844 39.555v-2.513H19.844V148.696H24.87zm44.714 5.027v-2.513h5.028V143.669H79.375v-4.763H84.402V133.88h-9.79V128.852h9.79V133.88H89.43v-10.054H94.456v-4.762h4.763v-10.055H104.246V114.035H109.273v5.028H99.219V123.825h-4.763v10.054h4.763v9.79H79.375v10.054h-9.79zm-5.027-32.279v-4.895H69.585v9.79H64.558zm-39.687-9.922v-5.027h10.054v10.054H24.871zm99.219-9.922v-4.894H129.117v9.789H124.09zm-59.532-2.38v-2.514H69.585V99.219H64.558zm29.898-14.95v-2.381h4.763v4.762h-4.763zm24.606 0v-2.381h5.028v4.762H119.063zm-44.45-4.895v-2.513h4.763V79.375h-4.763zm9.79 0v-2.513H89.43V79.375H84.402zm29.898-5.027v-2.513H109.273V64.294H104.246V59.53H99.219V54.504h-4.763V49.477H84.402V44.45H89.43v-4.763H79.375V34.66h10.054V39.687h19.844v4.763h9.789V49.477h5.028V54.504H129.117V59.531H124.09V54.504h-5.028V49.477h-9.789V54.504H114.3V59.531H109.273V64.293h9.789v10.055H114.3zM134.144 59.4v-4.895h4.762v9.79h-4.762zM29.898 51.991v-2.514H34.925V54.504H29.898zm44.715-5.027V44.45H79.374V49.477h-4.763zm59.53 0V44.45h4.763V49.477h-4.762zM54.77 39.555V34.66h19.843v5.028H64.558V44.45H54.77zm-15.081-2.381V34.66H44.715v5.028h-5.028zm89.429 0V34.66H134.144V39.687H129.117zM15.08 17.33v-2.513h4.763V19.844H15.082zm94.192 0v-2.513H114.3V19.844H109.273z"/><path fill="#aee801" d="M29.898 12.303V9.79H34.925V14.817H29.898z"/><path fill="#aee401" d="M34.925 12.303V9.79h4.763V14.817h-4.763z"/><path fill="#aed901" d="M104.246 91.678v-2.513H109.273V94.192H104.246z"/><path fill="#aec900" d="M89.43 12.303V9.79h5.026V14.817H89.43z"/><path fill="#aec200" d="M94.456 91.678v-2.513h4.763V94.192h-4.763z"/><path fill="#aec100" d="M84.402 12.303V9.79H89.43V14.817H84.402z"/><path fill="#aebc00" d="M124.09 116.549v-2.514H129.117V119.062H124.09z"/><path fill="#aeb800" d="M64.558 12.303V9.79H69.585V14.817H64.558z"/><path fill="#aeb400" d="M119.063 27.12v-2.514H114.3v-4.762h4.762v4.762h5.028V29.633h-5.028z"/><path fill="#aeae00" d="M44.715 151.21v-2.514H59.53V143.669H54.77V138.907h9.789v-5.028H69.585V128.852H59.531V123.825h15.082v10.054h9.789v-10.054H89.43v10.054H84.402V138.906H79.375v4.763h-4.763V148.696H69.585V153.723h-24.87zm-9.79-5.028v-2.513H29.898V138.907H24.87v-5.028H29.898V138.906H34.925v4.763h4.763V148.696h-4.763zm-19.844-24.738v-7.409H10.054V69.321H15.081V64.294H19.843v-9.79H15.082V49.477H10.054v10.054H5.027V49.477H10.054V44.45H5.027v-4.763H10.054V29.633H15.081v-9.789H19.843V14.817h5.028V19.844H19.844V34.66h10.054V29.633h14.817V34.66h10.054v9.79h9.789v-4.763h10.055V34.66h-5.028V29.633h14.817V34.66H79.375V39.687h10.054V34.66h19.844v5.028H114.3V44.45H109.273v-4.763H89.429v4.763H84.402V49.477H79.375V44.45h-4.763V49.477h-15.08V54.504h-4.763V59.531H49.742V64.293H44.715V59.532h-5.028V64.293H34.925V59.532H29.898V64.293H24.87v5.028H19.844v29.898h15.081V94.192h4.763V99.219h-4.763v4.762H24.871v10.054h10.054V119.062H24.871v4.763H19.844V128.852H15.082zm9.79-4.895v-2.514H19.844V119.062H24.87zm10.054-64.558v-2.514H29.898V54.504H34.925zm-10.054-5.027V44.45h-9.79V49.477h9.79zm19.844-9.79V34.66h-5.028V39.687h5.028zm14.816 79.375v-2.514H64.558V109.008H69.585V114.035H64.558V119.062H59.531zm59.532-2.514v-5.027H114.3V114.035h-10.054V109.008H109.273V99.22H114.3v4.762h4.763V109.008H124.09V103.981H129.117v10.054H124.09V119.062h-5.028zM54.769 99.086v-9.921h4.762v19.843H54.77zm9.79 2.514v-2.381h5.026v4.762H64.558zm54.504-12.435v-5.028h-9.79v-9.789H104.246V69.32H109.273V74.348h9.789v9.79h5.028v10.054H119.063zM59.53 81.756v-2.381H64.558V74.348h10.055V79.375H64.558v4.762H59.531zm19.844 0v-2.381h10.054v4.762H79.375zm15.081-24.738v-2.514H89.43V49.477H94.456V54.504h4.763V59.531h-4.763zm34.66 0v-2.514h-5.026V49.477h-5.028V44.45h5.028V49.477h10.054v10.054H129.117zm0-14.95v-2.38h5.028V44.45H129.117zm-5.026-9.921v-2.514H129.117V34.66H124.09zM94.456 17.33v-2.513h4.763V19.844h-4.763zM54.77 12.303V9.79h9.789V14.817H54.77z"/><path fill="#ae9c00" d="M39.688 12.303V9.79H44.715V14.817h-5.028z"/><path fill="#ae8e00" d="M49.742 12.303V9.79H54.769V14.817H49.742z"/><path fill="#ae6900" d="M54.769 146.182v-2.513H49.742V138.907H44.715v-5.028h-5.028v-10.054H34.925v-14.817h4.763V114.035h10.054v5.028h14.816V123.825H59.531V128.852h10.054V133.88H64.558V138.906H54.77V143.668h4.762v5.028H54.77zm4.762-14.816v-2.514H54.77V123.825H49.742v-4.763H44.715v4.763H49.742V128.852H54.769V133.88h4.762zm-34.66 0v-2.514H29.898V133.88H24.87zm49.742-5.027v-2.514h-5.028v-4.762H74.612V123.825h9.79V128.852h-9.79zm-54.77-9.79v-2.514h5.028V119.062H19.844zm34.926-5.027v-2.514h4.762V114.035H54.77zm9.79-5.027v-2.514h5.026V109.008H64.558zm54.504 0v-2.514H124.09V109.008H119.063zm-69.321-7.409v-4.894H54.769v9.789H49.742zM19.844 84.27V69.32H24.87v-5.026H29.898V59.53H34.925V64.293h4.763V59.532H44.715V64.293H49.742v5.028H44.715V74.348h-5.028V79.375h-9.789V74.348H24.87v19.844h10.054V89.165h9.79V84.138H59.53V89.165H44.715V94.192h-9.79V99.219H19.844zm99.219 12.435v-2.513H124.09V99.219H119.063zm-39.688-5.027v-2.513H84.402V94.192H79.375zm34.925-5.027v-2.513h4.762V89.165H114.3zm-24.87-9.79v-2.513h5.026V79.375H89.43zm-19.845-5.027v-2.513h9.79V74.348h-9.79zM99.22 66.94V59.53H104.246V64.293H109.273v5.028H114.3V74.348H109.273V69.32H104.246V74.348H99.219zM79.375 51.99v-2.513h10.054V54.504H79.375zm44.715-9.921V34.66h-5.028V29.633H114.3V24.606h4.762V29.633h5.028V34.66H129.117v9.79H134.144V49.477H124.09zm-9.79 0v-2.382H109.273V34.66H114.3V39.687h4.762v4.763H114.3zM19.844 27.252v-7.408H24.87V14.817H29.898V19.844H24.87v4.762h10.054V29.633H29.898V34.66H19.844zm34.925 4.895v-2.514h4.762V34.66H54.77zm9.79 0v-2.514h5.026V34.66H64.558zm34.66-12.436v-4.894h10.054v9.789H99.219zm-19.844-2.38v-2.514H84.402V19.844H79.375zm10.054 0v-2.514H94.456V19.844H89.43z"/><path fill="#ae5900" d="M44.715 12.303V9.79H49.742V14.817H44.715z"/><path fill="#ae3f00" d="M99.219 81.756v-2.381H104.246v4.762H99.219z"/><path fill="#ae2300" d="M39.688 146.182v-2.513H44.715V138.907h-5.028v-5.028h5.028V138.906H49.742v4.763H54.769V148.696H39.688zm-9.79-9.79v-2.513H34.925V138.906H29.898zm24.87-5.026v-2.514h-5.026V123.825H44.715v-4.763H49.742V114.035H39.687V109.008h5.028V103.981H49.742v10.054h9.789V119.062h-9.789v4.763H54.769V128.852h4.762V133.88H54.77zm-29.897-7.409v-4.894h10.054V123.825h4.763V128.852h-4.763V123.825H29.898V128.852H24.87zm64.558-2.513v-2.382H94.456v4.763H89.43zm5.027-14.95v-2.513H89.43V99.22H79.375V94.192H84.402V89.165H89.43V84.138H94.456V89.165H89.43V94.192h9.79V99.219h-4.763v4.762h4.763V109.008h-4.763zM114.3 101.6v-2.381H109.273V94.192H114.3V99.219h9.79v4.762h-9.79zm-84.402-9.922v-2.513H24.87V74.348H29.898V79.375h9.79V74.348H44.715V79.375h-5.028v4.762h5.028v5.028h10.054V94.192H44.715V89.165h-5.028V84.138h-9.789V89.165H34.925V94.192H29.898zm39.687 0v-2.513H74.612V94.192H69.585zm-19.843-9.922v-2.381h9.789V74.348H64.558V79.375H59.531v4.762h-9.789zm54.504-4.895v-2.513H109.273V79.375H104.246zm-24.871-5.027v-2.513H84.402V74.348H79.375zm15.081-5.027v-2.513H84.402v-9.79h10.054V59.531h4.763v9.79h-4.763zM59.531 51.991v-2.514h19.844V54.504H59.531zm59.532-12.436V34.66h-9.79V29.633H104.246V24.606H109.273v-4.762H114.3v9.789h4.763V34.66H124.09v9.79H119.063zm-74.348-7.408v-2.514h10.054V34.66H44.715zm14.816 0v-2.514H64.558V34.66H59.531zm24.871 0v-2.514h10.054V34.66H84.402zM34.925 27.12v-2.514H24.871v-4.762H29.898V14.817H34.925V19.844h4.763v9.789h-4.763zm59.531-4.895v-2.381h4.763v4.762h-4.763zM64.558 17.33v-2.513h14.817V19.844H64.558zm19.844 0v-2.513H89.43V19.844H84.402z"/><path fill="#ae1b00" d="M114.3 156.236v-2.513h4.762V158.75H114.3z"/><path fill="#ae1200" d="M119.063 156.236v-2.513H124.09V158.75H119.063z"/><path fill="#ae0f00" d="M104.246 86.651v-2.513H109.273V89.165H104.246z"/><path fill="#ae0c00" d="M74.612 111.522v-2.514h4.763V114.035h-4.763zM114.3 96.705v-2.513h4.762V99.219H114.3zm-89.43-5.027v-2.513h5.028V94.192H24.87zm59.532-19.844v-2.513H89.43V74.348H84.402zm-34.66-9.922v-2.38H54.769V64.293H49.742z"/><path fill="#ae0000" d="M0 79.375V0h158.75v158.75h-34.66V153.723h29.898V4.763H5.028v148.96H114.3V158.75H0zm34.925 59.399v-4.895H29.898v-10.054H34.925V128.852h4.763v10.054H44.715v4.763h-9.79zm39.688-17.33v-2.382h-5.028v-24.87H74.612V84.137H89.43v5.028H94.456V94.192H89.43V89.165H79.375v10.054h10.054v4.762H94.456V99.22H99.218v4.762H94.457V109.008h4.763v10.055h-9.79V123.825H74.612zm4.762-9.922v-2.514h-4.763V114.035h4.763zm-29.633-2.514v-5.027H44.715V109.008h-9.79V99.22h4.763V94.192h10.054v9.789H54.769v10.054H49.742zm59.53-19.843v-5.028h-5.026V79.376h-9.79V74.348H89.43V69.32H69.585V74.348H59.531V79.375h-9.789v4.762H39.687v5.028h-9.789V84.138h9.79v-4.763H44.715V69.321H49.742V64.294H54.769v-9.79H84.402v9.79h10.054V69.32H99.218V74.348h5.028V79.375H109.273v4.762H114.3v5.028h4.763V94.192h-9.79zm5.028-51.991V34.66h4.762v5.028H114.3zm-19.844-5.027v-2.514H39.687v-9.789H34.925V14.817H64.558V19.844h29.898v4.762h9.79V29.633H109.273V34.66H94.456z"/></svg>
