<?xml version="1.0" encoding="UTF-8" standalone="no"?>
<svg
   width="600"
   height="600"
   viewBox="0 0 158.75 158.75"
   version="1.1"
   id="svg6"
   sodipodi:docname="icon-greyscale.svg"
   inkscape:version="1.2.2 (b0a8486541, 2022-12-01)"
   xmlns:inkscape="http://www.inkscape.org/namespaces/inkscape"
   xmlns:sodipodi="http://sodipodi.sourceforge.net/DTD/sodipodi-0.dtd"
   xmlns="http://www.w3.org/2000/svg"
   xmlns:svg="http://www.w3.org/2000/svg">
  <defs
     id="defs10" />
  <sodipodi:namedview
     id="namedview8"
     pagecolor="#ffffff"
     bordercolor="#666666"
     borderopacity="1.0"
     inkscape:showpageshadow="2"
     inkscape:pageopacity="0.0"
     inkscape:pagecheckerboard="0"
     inkscape:deskcolor="#d1d1d1"
     showgrid="false"
     inkscape:zoom="1.5466667"
     inkscape:cx="288.03879"
     inkscape:cy="300"
     inkscape:window-width="1920"
     inkscape:window-height="1137"
     inkscape:window-x="0"
     inkscape:window-y="0"
     inkscape:window-maximized="1"
     inkscape:current-layer="svg6" />
  <rect
     style="fill:#ffffff;fill-rule:evenodd;stroke-width:0.529167;paint-order:stroke fill markers"
     id="rect291"
     width="158.75"
     height="158.75"
     x="0"
     y="0" />
  <path
     d="M 0,79.375 V 0 H 158.75 V 158.75 H 0 Z M 153.988,79.243 V 4.763 H 5.028 v 148.96 h 148.96 z m -114.3,66.94 v -2.514 h -4.763 v -4.762 H 29.898 V 128.852 H 24.87 v -9.789 h 10.054 v 4.762 h 4.763 v 10.054 h 5.028 v 5.027 h 5.027 v 4.763 h 5.027 v 5.027 H 39.688 Z m 15.08,-14.817 v -2.514 h -5.026 v -5.027 h -5.027 v -4.763 h 5.027 v -5.027 H 39.687 v -5.027 H 34.925 V 99.22 h 4.763 v -5.028 h 5.027 v -5.027 h -9.79 v 5.027 H 24.871 V 74.348 h 5.027 v 5.027 h 9.789 v -5.027 h 5.028 V 69.32 h 5.027 v -9.79 h 5.027 v -5.026 h 4.762 v -5.027 h 19.844 v 5.027 h 15.081 v 5.027 h 4.762 v 14.817 h 10.055 v 9.789 h 5.027 v 5.028 h 4.763 v 10.054 h 5.027 v 4.762 H 114.3 V 99.22 h -5.027 V 89.165 h -5.027 V 84.138 H 99.219 V 79.375 H 94.456 V 74.348 H 79.375 V 69.32 h -9.79 v 5.028 h -5.027 v 5.027 h -5.027 v 4.762 H 44.715 v 5.028 h 10.054 v 5.027 h -5.027 v 9.789 h 5.027 v 10.054 h 4.762 v 5.027 h -9.789 v 4.763 h 5.027 v 5.027 h 4.762 v 5.028 H 54.77 Z m 19.844,-9.922 v -2.382 H 69.585 V 89.165 h 5.027 v -5.026 h 19.844 v 10.054 h 4.763 v 24.87 h -4.763 v 4.762 H 74.612 Z m 9.79,-29.766 v -2.513 h -5.027 v 5.027 h 5.027 z m 34.66,-49.61 v -2.38 H 114.3 V 34.66 H 84.402 V 29.633 H 64.558 V 34.66 H 59.531 V 29.633 H 54.77 V 34.66 H 44.715 v -5.027 h -9.79 V 24.606 H 24.871 v -4.762 h 5.027 V 14.817 H 44.715 V 9.79 h 5.027 v 5.027 h 29.633 v 5.027 h 5.027 v -5.027 h 5.028 v 5.027 h 9.79 v 4.762 h 10.054 v -4.762 h 5.026 v 9.789 h 4.763 v 5.027 h 5.027 v 9.79 h -5.027 z"
     id="path2" />
  <path
     fill="#777"
     d="M44.715 151.21v-2.514h10.054V143.669H49.742V138.907H44.715v-5.028h-5.028v-10.054H34.925v-4.762H24.871V123.825H19.844V128.852H15.082v-14.817h-5.028V69.321H15.081V64.294H19.843v-9.79H15.082V49.477H10.054v10.054H5.027V49.477H10.054V44.45H5.027v-4.763H10.054V29.633H15.081v-9.789H19.843V14.817h10.055V19.844H24.87v4.762h10.054V29.633h9.79V34.66h10.054V29.633h4.762V34.66H54.77v9.79h9.789v-4.763h10.055V34.66H64.558V29.633h19.844V34.66H79.375V39.687h10.054V34.66H114.3V39.687h4.762v4.763h5.028v-9.79h-5.028V29.633H114.3v-9.789h4.762v4.762h5.028V29.633H129.117v10.055H134.144V59.53H129.117V54.504H124.09V49.477h-5.028V44.45h-9.789v-4.763H89.429v4.763H84.402V49.477h10.054V54.504H99.218V59.531h5.028V64.293H109.273v5.028H114.3V74.348h4.763v9.79H124.09v15.08H119.063V89.166H114.3V84.138H109.273v-9.79H99.219V59.53h-4.763V54.504H79.375V44.45h-4.763V49.477h-15.08V54.504h-4.763V59.531H49.742v9.79H44.715V74.348h-5.028V79.375h-9.789V74.348H24.87v19.844h10.054V89.165h9.79V84.138H59.53v-4.763H64.558V74.348H69.585V69.32h9.79V74.348h-4.763V79.375H64.558v4.762H59.531v29.898H64.558V99.22H69.585v14.816H64.558v9.79H69.585v-4.763h5.028v4.763h14.816v10.054H84.402V138.906H79.375v4.763h-4.763V148.696H69.585V153.723h-24.87zm14.816-19.844v-2.514H54.77V123.825H49.742v-4.763h9.789V114.035H54.77v-10.054H49.742v-9.789H54.769V89.165H44.715V94.192h-5.028V99.219H34.925v4.762H24.871v10.054h10.054V109.008h4.763V114.035h10.054V119.062H44.715v4.763H49.742V128.852H54.769V133.88h4.762zm24.871 0v-2.514h-9.79V133.88h9.79zM34.925 51.99v-2.514H29.898V54.504H34.925zm-10.054-5.027V44.45h-9.79V49.477h9.79zm19.844-9.79V34.66h-5.028V39.687h5.028zm-9.79 109.008v-2.513H29.898V138.907H24.87v-10.055H29.898v10.054H34.925v4.763h4.763V148.696h-4.763zm84.138-32.147v-5.027H114.3V114.035h-10.054V109.008H109.273V99.22H114.3v4.762h14.817v15.081h-10.054zM79.374 91.678v-2.513H84.402V94.192H79.375zm15.081 0v-2.513h4.763V94.192h-4.763zm-15.081-9.922v-2.381h10.054V74.348H94.456V79.375H89.43v4.762H79.375zm19.844-59.531v-2.381h-9.79V14.817H84.402V19.844H79.375V14.817H84.402V9.79h10.054V14.817h14.817v9.789H99.219zm-59.531-9.922V9.79H44.715V14.817h-5.028zm10.054 0V9.79h19.843V14.817H49.742z"
     id="path4" />
</svg>
