<svg xmlns="http://www.w3.org/2000/svg" width="600" height="600" viewBox="0 0 158.75 158.75"><path d="M0 79.375V0h158.75v158.75H0zm153.988-.132V4.763H5.028v148.96h148.96zm-114.3 66.94v-2.514h-4.763V138.907H29.898v-10.055H24.87v-9.789h10.054V123.825h4.763v10.054H44.715V138.906H49.742v4.763H54.769V148.696H39.688zm15.08-14.817v-2.514h-5.026V123.825H44.715v-4.763H49.742V114.035H39.687V109.008H34.925V99.22h4.763V94.192H44.715V89.165h-9.79V94.192H24.871V74.348H29.898V79.375h9.789V74.348h5.028V69.32H49.742v-9.79H54.769V54.504h4.762V49.477h19.844V54.504h15.081V59.531H99.218v14.817h10.055v9.789H114.3v5.028h4.763v10.054H124.09v4.762h-9.79V99.22H109.273V89.165H104.246V84.138H99.219v-4.763h-4.763V74.348H79.375V69.32h-9.79V74.348H64.558V79.375H59.531v4.762H44.715v5.028h10.054V94.192H49.742v9.789H54.769v10.054h4.762V119.062h-9.789v4.763H54.769V128.852h4.762V133.88H54.77zm19.844-9.922v-2.382H69.585V89.165H74.612v-5.026h19.844v10.054h4.763V119.063h-4.763V123.825H74.612zm9.79-29.766v-2.513H79.375V94.192H84.402zm34.66-49.61v-2.38H114.3V34.66H84.402V29.633H64.558V34.66H59.531V29.633H54.77V34.66H44.715V29.633h-9.79V24.606H24.871v-4.762H29.898V14.817h14.817V9.79H49.742V14.817H79.375V19.844H84.402V14.817H89.43V19.844h9.79v4.762h10.054v-4.762H114.3v9.789h4.763V34.66H124.09v9.79H119.063z"/><path fill="#777" d="M44.715 151.21v-2.514h10.054V143.669H49.742V138.907H44.715v-5.028h-5.028v-10.054H34.925v-4.762H24.871V123.825H19.844V128.852H15.082v-14.817h-5.028V69.321H15.081V64.294H19.843v-9.79H15.082V49.477H10.054v10.054H5.027V49.477H10.054V44.45H5.027v-4.763H10.054V29.633H15.081v-9.789H19.843V14.817h10.055V19.844H24.87v4.762h10.054V29.633h9.79V34.66h10.054V29.633h4.762V34.66H54.77v9.79h9.789v-4.763h10.055V34.66H64.558V29.633h19.844V34.66H79.375V39.687h10.054V34.66H114.3V39.687h4.762v4.763h5.028v-9.79h-5.028V29.633H114.3v-9.789h4.762v4.762h5.028V29.633H129.117v10.055H134.144V59.53H129.117V54.504H124.09V49.477h-5.028V44.45h-9.789v-4.763H89.429v4.763H84.402V49.477h10.054V54.504H99.218V59.531h5.028V64.293H109.273v5.028H114.3V74.348h4.763v9.79H124.09v15.08H119.063V89.166H114.3V84.138H109.273v-9.79H99.219V59.53h-4.763V54.504H79.375V44.45h-4.763V49.477h-15.08V54.504h-4.763V59.531H49.742v9.79H44.715V74.348h-5.028V79.375h-9.789V74.348H24.87v19.844h10.054V89.165h9.79V84.138H59.53v-4.763H64.558V74.348H69.585V69.32h9.79V74.348h-4.763V79.375H64.558v4.762H59.531v29.898H64.558V99.22H69.585v14.816H64.558v9.79H69.585v-4.763h5.028v4.763h14.816v10.054H84.402V138.906H79.375v4.763h-4.763V148.696H69.585V153.723h-24.87zm14.816-19.844v-2.514H54.77V123.825H49.742v-4.763h9.789V114.035H54.77v-10.054H49.742v-9.789H54.769V89.165H44.715V94.192h-5.028V99.219H34.925v4.762H24.871v10.054h10.054V109.008h4.763V114.035h10.054V119.062H44.715v4.763H49.742V128.852H54.769V133.88h4.762zm24.871 0v-2.514h-9.79V133.88h9.79zM34.925 51.99v-2.514H29.898V54.504H34.925zm-10.054-5.027V44.45h-9.79V49.477h9.79zm19.844-9.79V34.66h-5.028V39.687h5.028zm-9.79 109.008v-2.513H29.898V138.907H24.87v-10.055H29.898v10.054H34.925v4.763h4.763V148.696h-4.763zm84.138-32.147v-5.027H114.3V114.035h-10.054V109.008H109.273V99.22H114.3v4.762h14.817v15.081h-10.054zM79.374 91.678v-2.513H84.402V94.192H79.375zm15.081 0v-2.513h4.763V94.192h-4.763zm-15.081-9.922v-2.381h10.054V74.348H94.456V79.375H89.43v4.762H79.375zm19.844-59.531v-2.381h-9.79V14.817H84.402V19.844H79.375V14.817H84.402V9.79h10.054V14.817h14.817v9.789H99.219zm-59.531-9.922V9.79H44.715V14.817h-5.028zm10.054 0V9.79h19.843V14.817H49.742z"/></svg>
