<?xml version="1.0" encoding="UTF-8" standalone="no"?>
<svg
   xmlns:dc="http://purl.org/dc/elements/1.1/"
   xmlns:cc="http://creativecommons.org/ns#"
   xmlns:rdf="http://www.w3.org/1999/02/22-rdf-syntax-ns#"
   xmlns:svg="http://www.w3.org/2000/svg"
   xmlns="http://www.w3.org/2000/svg"
   xmlns:sodipodi="http://sodipodi.sourceforge.net/DTD/sodipodi-0.dtd"
   xmlns:inkscape="http://www.inkscape.org/namespaces/inkscape"
   width="683.20795"
   height="600"
   viewBox="0 0 180.76543 158.75"
   version="1.1"
   id="svg6"
   sodipodi:docname="start.svg"
   inkscape:version="1.0.2 (e86c870879, 2021-01-15)"
   inkscape:export-filename="/home/josh/Documents/Blobfolio/git/apps/refract/refract_gtk/skel/img/start.png"
   inkscape:export-xdpi="64"
   inkscape:export-ydpi="64">
  <metadata
     id="metadata12">
    <rdf:RDF>
      <cc:Work
         rdf:about="">
        <dc:format>image/svg+xml</dc:format>
        <dc:type
           rdf:resource="http://purl.org/dc/dcmitype/StillImage" />
        <dc:title></dc:title>
      </cc:Work>
    </rdf:RDF>
  </metadata>
  <defs
     id="defs10" />
  <sodipodi:namedview
     pagecolor="#ffffff"
     bordercolor="#666666"
     borderopacity="1"
     objecttolerance="10"
     gridtolerance="10"
     guidetolerance="10"
     inkscape:pageopacity="0"
     inkscape:pageshadow="2"
     inkscape:window-width="1920"
     inkscape:window-height="1022"
     id="namedview8"
     showgrid="false"
     inkscape:zoom="1"
     inkscape:cx="284.86233"
     inkscape:cy="323.96242"
     inkscape:window-x="0"
     inkscape:window-y="0"
     inkscape:window-maximized="1"
     inkscape:current-layer="svg6"
     fit-margin-top="0"
     fit-margin-left="0"
     fit-margin-right="0"
     fit-margin-bottom="0"
     inkscape:document-rotation="0" />
  <path
     d="M 11.007725,79.375003 V 3.2341626e-6 H 169.75772 V 158.75 H 11.007725 Z m 153.987995,-0.132 V 4.7630032 H 16.035725 V 153.723 H 164.99572 Z M 50.695725,146.183 v -2.514 h -4.763 v -4.762 h -5.027 v -10.055 h -5.028 v -9.789 h 10.054 v 4.762 h 4.763 v 10.054 h 5.028 v 5.027 h 5.027 v 4.763 h 5.027 v 5.027 h -15.081 z m 15.08,-14.817 v -2.514 h -5.026 v -5.027 h -5.027 v -4.763 h 5.027 v -5.027 h -10.055 v -5.027 h -4.762 v -9.787997 h 4.763 v -5.028 h 5.027 v -5.027 h -9.79 v 5.027 h -10.054 v -19.844 h 5.027 v 5.027 h 9.789 v -5.027 h 5.028 v -5.028 h 5.027 v -9.79 h 5.027 v -5.026 h 4.762 v -5.027 h 19.844 v 5.027 h 15.080995 v 5.027 h 4.762 v 14.817 h 10.055 v 9.789 h 5.027 v 5.028 h 4.763 v 10.054 h 5.027 V 103.981 h -9.79 v -4.760997 h -5.027 v -10.055 h -5.027 v -5.027 h -5.027 v -4.763 h -4.763 v -5.027 H 90.382725 v -5.028 h -9.79 v 5.028 h -5.027 v 5.027 h -5.027 v 4.762 h -14.816 v 5.028 h 10.054 v 5.027 h -5.027 V 103.981 h 5.027 v 10.054 h 4.762 v 5.027 h -9.789 v 4.763 h 5.027 v 5.027 h 4.762 v 5.028 h -4.761 z m 19.844,-9.922 v -2.382 h -5.027 V 89.165003 h 5.027 v -5.026 h 19.843995 v 10.054 h 4.763 V 119.063 h -4.763 v 4.762 H 85.619725 Z m 9.79,-29.765997 v -2.513 h -5.027 v 5.027 h 5.027 z m 34.659995,-49.61 v -2.38 h -4.762 v -5.028 H 95.409725 v -5.027 h -19.844 v 5.027 h -5.027 v -5.027 h -4.761 v 5.027 h -10.055 v -5.027 h -9.79 v -5.027 h -10.054 v -4.762 h 5.027 v -5.027 h 14.817 V 9.7900032 h 5.027 v 5.0269998 h 29.633 v 5.027 h 5.027 v -5.027 h 5.027995 v 5.027 h 9.79 v 4.762 h 10.054 v -4.762 h 5.026 v 9.789 h 4.763 v 5.027 h 5.027 v 9.79 h -5.027 z"
     id="path2" />
  <path
     fill="#777777"
     d="m 55.722725,151.21 v -2.514 h 10.054 v -5.027 h -5.027 v -4.762 h -5.027 v -5.028 h -5.028 v -10.054 h -4.762 v -4.762 h -10.054 v 4.762 h -5.027 v 5.027 h -4.762 v -14.817 h -5.028 V 69.321003 h 5.027 v -5.027 h 4.762 v -9.79 h -4.761 v -5.027 h -5.028 v 10.054 h -5.027 v -10.054 h 5.027 v -5.027 h -5.027 v -4.763 h 5.027 v -10.054 h 5.027 v -9.789 h 4.762 v -5.027 h 10.055 v 5.027 h -5.028 v 4.762 h 10.054 v 5.027 h 9.79 v 5.027 h 10.054 v -5.027 h 4.762 v 5.027 h -4.76 v 9.79 h 9.789 v -4.763 h 10.055 v -5.027 h -10.056 v -5.027 h 19.844 v 5.027 h -5.027 v 5.027 h 10.053995 v -5.027 h 24.871 v 5.027 h 4.762 v 4.763 h 5.028 v -9.79 h -5.028 v -5.027 h -4.762 v -9.789 h 4.762 v 4.762 h 5.028 v 5.027 h 5.027 v 10.055 h 5.027 v 19.842 h -5.027 v -5.026 h -5.027 v -5.027 h -5.028 v -5.027 h -9.789 v -4.763 h -19.844 v 4.763 h -5.026995 v 5.027 h 10.053995 v 5.027 h 4.762 v 5.027 h 5.028 v 4.762 h 5.027 v 5.028 h 5.027 v 5.027 h 4.763 v 9.79 h 5.027 v 15.08 h -5.027 v -10.052 h -4.763 v -5.028 h -5.027 v -9.79 h -10.054 v -14.818 h -4.763 v -5.026 H 90.382725 v -10.054 h -4.763 v 5.027 h -15.08 v 5.027 h -4.763 v 5.027 h -5.027 v 9.79 h -5.027 v 5.027 h -5.028 v 5.027 h -9.789 v -5.027 h -5.028 v 19.844 h 10.054 v -5.027 h 9.79 v -5.027 h 14.816 v -4.763 h 5.028 v -5.027 h 5.027 v -5.028 h 9.79 v 5.028 h -4.763 v 5.027 h -10.054 v 4.762 h -5.027 V 114.035 h 5.027 V 99.220003 h 5.027 V 114.036 h -5.027 v 9.79 h 5.027 v -4.763 h 5.028 v 4.763 h 14.815995 v 10.054 h -5.026995 v 5.026 h -5.027 v 4.763 h -4.763 v 5.027 h -5.027 v 5.027 h -24.87 z m 14.816,-19.844 v -2.514 h -4.761 v -5.027 h -5.028 v -4.763 h 9.789 v -5.027 h -4.761 v -10.054 h -5.028 v -9.788997 h 5.027 v -5.027 h -10.054 v 5.027 h -5.028 v 5.027 h -4.762 V 103.981 h -10.054 v 10.054 h 10.054 v -5.027 h 4.763 v 5.027 h 10.054 v 5.027 h -5.027 v 4.763 h 5.027 v 5.027 h 5.027 v 5.028 h 4.762 z m 24.871,0 v -2.514 h -9.79 v 5.028 h 9.79 z m -49.477,-79.375997 v -2.514 h -5.027 v 5.028 h 5.027 z m -10.054,-5.027 v -2.513 h -9.79 v 5.027 h 9.79 z m 19.844,-9.79 v -2.513 h -5.028 v 5.027 h 5.028 z m -9.79,109.007997 v -2.513 h -5.027 v -4.761 h -5.028 v -10.055 h 5.028 v 10.054 h 5.027 v 4.763 h 4.763 v 5.027 h -4.763 z m 84.137995,-32.147 v -5.027 h -4.763 v 5.028 h -10.054 v -5.027 h 5.027 v -9.787997 h 5.027 V 103.982 h 14.817 v 15.081 h -10.054 z M 90.381725,91.678003 v -2.513 h 5.028 v 5.027 h -5.027 z m 15.080995,0 v -2.513 h 4.763 v 5.027 h -4.763 z m -15.080995,-9.922 v -2.381 h 10.053995 v -5.027 h 5.028 v 5.027 h -5.026 v 4.762 H 90.382725 Z m 19.843995,-59.531 v -2.381 h -9.79 v -5.027 h -5.025995 v 5.027 h -5.027 v -5.027 h 5.027 V 9.7900032 h 10.053995 v 5.0269998 h 14.817 v 9.789 h -10.054 z m -59.530995,-9.922 V 9.7900032 h 5.028 v 5.0269998 h -5.028 z m 10.054,0 V 9.7900032 h 19.843 v 5.0269998 h -19.842 z"
     id="path4" />
  <text
     xml:space="preserve"
     style="font-style:normal;font-variant:normal;font-weight:normal;font-stretch:normal;font-size:11.5165px;line-height:1.25;font-family:'Arial Black';-inkscape-font-specification:'Arial Black, Normal';font-variant-ligatures:normal;font-variant-caps:normal;font-variant-numeric:normal;font-variant-east-asian:normal;letter-spacing:0px;word-spacing:0px;fill:#9b59b6;fill-opacity:1;stroke:none;stroke-width:0.264583"
     x="-0.87723345"
     y="-176.02698"
     id="text839"
     transform="matrix(0,1.0201691,-0.98022966,0,0,0)"><tspan
       sodipodi:role="line"
       id="tspan837"
       x="-0.87723345"
       y="-176.02698"
       style="font-style:normal;font-variant:normal;font-weight:normal;font-stretch:normal;font-size:11.5165px;font-family:'Arial Black';-inkscape-font-specification:'Arial Black, Normal';font-variant-ligatures:normal;font-variant-caps:normal;font-variant-numeric:normal;font-variant-east-asian:normal;fill:#9b59b6;fill-opacity:1;stroke-width:0.264583">REFRACT</tspan></text>
  <text
     xml:space="preserve"
     style="font-style:normal;font-variant:normal;font-weight:normal;font-stretch:normal;font-size:11.5165px;line-height:1.25;font-family:'Arial Black';-inkscape-font-specification:'Arial Black, Normal';font-variant-ligatures:normal;font-variant-caps:normal;font-variant-numeric:normal;font-variant-east-asian:normal;letter-spacing:0px;word-spacing:0px;fill:#ff3596;fill-opacity:1;stroke:none;stroke-width:0.264583"
     x="-156.48878"
     y="8.3843269"
     id="text839-5"
     transform="matrix(0,-1.0201685,0.98023023,0,0,0)"><tspan
       sodipodi:role="line"
       id="tspan837-2"
       x="-156.48878"
       y="8.3843269"
       style="font-style:normal;font-variant:normal;font-weight:normal;font-stretch:normal;font-size:11.5165px;font-family:'Arial Black';-inkscape-font-specification:'Arial Black, Normal';font-variant-ligatures:normal;font-variant-caps:normal;font-variant-numeric:normal;font-variant-east-asian:normal;fill:#ff3596;fill-opacity:1;stroke-width:0.264583">REFRACT</tspan></text>
</svg>
